{
	"asset":{
		"generator":"Khronos glTF Blender I/O v4.5.47",
		"version":"2.0"
	},
	"scene":0,
	"scenes":[
		{
			"name":"Scene",
			"nodes":[
				0,
				1,
				2
			]
		}
	],
	"nodes":[
		{
			"mesh":0,
			"name":"Icosphere"
		},
		{
			"mesh":1,
			"name":"Cylinder",
			"translation":[
				0,
				0.4821106493473053,
				0
			]
		},
		{
			"mesh":2,
			"name":"Plane",
			"rotation":[
				-0.031505171209573746,
				0.17329320311546326,
				0.5277724266052246,
				0.8309230804443359
			],
			"translation":[
				0.5823248624801636,
				0.6466768980026245,
				-0.19722285866737366
			]
		}
	],
	"materials":[
		{
			"doubleSided":true,
			"name":"Material.001"
		},
		{
			"doubleSided":true,
			"name":"Material.002",
			"pbrMetallicRoughness":{
				"baseColorFactor":[
					0.08164840191602707,
					0.0009891660884022713,
					0,
					1
				],
				"metallicFactor":0,
				"roughnessFactor":0.5
			}
		},
		{
			"doubleSided":true,
			"name":"Material.003",
			"pbrMetallicRoughness":{
				"baseColorFactor":[
					0.045538946986198425,
					0.20822012424468994,
					0,
					1
				],
				"metallicFactor":0,
				"roughnessFactor":0.5
			}
		}
	],
	"meshes":[
		{
			"name":"Icosphere.001",
			"primitives":[
				{
					"attributes":{
						"POSITION":0,
						"NORMAL":1,
						"TEXCOORD_0":2,
						"TANGENT":3
					},
					"indices":4,
					"material":0
				}
			]
		},
		{
			"name":"Cylinder",
			"primitives":[
				{
					"attributes":{
						"POSITION":5,
						"NORMAL":6,
						"TEXCOORD_0":7
					},
					"indices":8,
					"material":1
				}
			]
		},
		{
			"name":"Plane",
			"primitives":[
				{
					"attributes":{
						"POSITION":9,
						"NORMAL":10,
						"TEXCOORD_0":11,
						"TANGENT":12
					},
					"indices":13,
					"material":2
				}
			]
		}
	],
	"accessors":[
		{
			"bufferView":0,
			"componentType":5126,
			"count":260,
			"max":[
				0.9510578513145447,
				1,
				0.9999999403953552
			],
			"min":[
				-0.9510578513145447,
				-0.906224250793457,
				-0.9999999403953552
			],
			"type":"VEC3"
		},
		{
			"bufferView":1,
			"componentType":5126,
			"count":260,
			"type":"VEC3"
		},
		{
			"bufferView":2,
			"componentType":5126,
			"count":260,
			"type":"VEC2"
		},
		{
			"bufferView":3,
			"componentType":5126,
			"count":260,
			"type":"VEC4"
		},
		{
			"bufferView":4,
			"componentType":5123,
			"count":270,
			"type":"SCALAR"
		},
		{
			"bufferView":5,
			"componentType":5126,
			"count":96,
			"max":[
				0.08000066131353378,
				0.9300000667572021,
				0.08000066131353378
			],
			"min":[
				-0.08000066131353378,
				-0.9300000667572021,
				-0.08000066131353378
			],
			"type":"VEC3"
		},
		{
			"bufferView":6,
			"componentType":5126,
			"count":96,
			"type":"VEC3"
		},
		{
			"bufferView":7,
			"componentType":5126,
			"count":96,
			"type":"VEC2"
		},
		{
			"bufferView":8,
			"componentType":5123,
			"count":180,
			"type":"SCALAR"
		},
		{
			"bufferView":9,
			"componentType":5126,
			"count":4,
			"max":[
				0.26412373781204224,
				0.8391347527503967,
				0.13307596743106842
			],
			"min":[
				-0.2422647923231125,
				0.7686309218406677,
				-0.37440815567970276
			],
			"type":"VEC3"
		},
		{
			"bufferView":10,
			"componentType":5126,
			"count":4,
			"type":"VEC3"
		},
		{
			"bufferView":11,
			"componentType":5126,
			"count":4,
			"type":"VEC2"
		},
		{
			"bufferView":12,
			"componentType":5126,
			"count":4,
			"type":"VEC4"
		},
		{
			"bufferView":13,
			"componentType":5123,
			"count":6,
			"type":"SCALAR"
		}
	],
	"bufferViews":[
		{
			"buffer":0,
			"byteLength":3120,
			"byteOffset":0,
			"target":34962
		},
		{
			"buffer":0,
			"byteLength":3120,
			"byteOffset":3120,
			"target":34962
		},
		{
			"buffer":0,
			"byteLength":2080,
			"byteOffset":6240,
			"target":34962
		},
		{
			"buffer":0,
			"byteLength":4160,
			"byteOffset":8320,
			"target":34962
		},
		{
			"buffer":0,
			"byteLength":540,
			"byteOffset":12480,
			"target":34963
		},
		{
			"buffer":0,
			"byteLength":1152,
			"byteOffset":13020,
			"target":34962
		},
		{
			"buffer":0,
			"byteLength":1152,
			"byteOffset":14172,
			"target":34962
		},
		{
			"buffer":0,
			"byteLength":768,
			"byteOffset":15324,
			"target":34962
		},
		{
			"buffer":0,
			"byteLength":360,
			"byteOffset":16092,
			"target":34963
		},
		{
			"buffer":0,
			"byteLength":48,
			"byteOffset":16452,
			"target":34962
		},
		{
			"buffer":0,
			"byteLength":48,
			"byteOffset":16500,
			"target":34962
		},
		{
			"buffer":0,
			"byteLength":32,
			"byteOffset":16548,
			"target":34962
		},
		{
			"buffer":0,
			"byteLength":64,
			"byteOffset":16580,
			"target":34962
		},
		{
			"buffer":0,
			"byteLength":12,
			"byteOffset":16644,
			"target":34963
		}
	],
	"buffers":[
		{
			"byteLength":16656,
			"uri":"apple-b2b98f1bc31eb1c1d0fcdeb731661146.bin"
		}
	]
}
