{
	"asset":{
		"generator":"Khronos glTF Blender I/O v4.5.47",
		"version":"2.0"
	},
	"scene":0,
	"scenes":[
		{
			"name":"Scene",
			"nodes":[
				0,
				1,
				2
			]
		}
	],
	"nodes":[
		{
			"mesh":0,
			"name":"Cube"
		},
		{
			"mesh":1,
			"name":"Cube.001",
			"scale":[
				0.6183958053588867,
				0.6183958053588867,
				0.6183958053588867
			]
		},
		{
			"mesh":2,
			"name":"rinde(inen(mediva))",
			"scale":[
				1.260416030883789,
				1,
				1
			],
			"translation":[
				0,
				0.6415902972221375,
				0
			]
		}
	],
	"materials":[
		{
			"alphaMode":"BLEND",
			"doubleSided":true,
			"name":"rine(aumtextur)",
			"pbrMetallicRoughness":{
				"metallicFactor":0,
				"roughnessFactor":0.5
			}
		},
		{
			"alphaMode":"BLEND",
			"doubleSided":true,
			"name":"rinde(inen(mediva))",
			"pbrMetallicRoughness":{
				"metallicFactor":0,
				"roughnessFactor":0.5
			}
		}
	],
	"meshes":[
		{
			"name":"Mesh",
			"primitives":[
				{
					"attributes":{
						"POSITION":0,
						"NORMAL":1,
						"TEXCOORD_0":2,
						"TANGENT":3
					},
					"indices":4,
					"material":0
				}
			]
		},
		{
			"name":"Cube.002",
			"primitives":[
				{
					"attributes":{
						"POSITION":5,
						"NORMAL":6,
						"TEXCOORD_0":7,
						"TANGENT":8
					},
					"indices":9
				}
			]
		},
		{
			"name":"rinde(inen(mediva))",
			"primitives":[
				{
					"attributes":{
						"POSITION":10,
						"NORMAL":11,
						"TEXCOORD_0":12,
						"TANGENT":13
					},
					"indices":14,
					"material":1
				}
			]
		}
	],
	"accessors":[
		{
			"bufferView":0,
			"componentType":5126,
			"count":4393,
			"max":[
				2.6005196571350098,
				1.0093129873275757,
				2.336761474609375
			],
			"min":[
				-2.5982518196105957,
				-1.0056724548339844,
				-2.377934694290161
			],
			"type":"VEC3"
		},
		{
			"bufferView":1,
			"componentType":5126,
			"count":4393,
			"type":"VEC3"
		},
		{
			"bufferView":2,
			"componentType":5126,
			"count":4393,
			"type":"VEC2"
		},
		{
			"bufferView":3,
			"componentType":5126,
			"count":4393,
			"type":"VEC4"
		},
		{
			"bufferView":4,
			"componentType":5123,
			"count":6912,
			"type":"SCALAR"
		},
		{
			"bufferView":5,
			"componentType":5126,
			"count":24,
			"max":[
				1,
				1,
				1
			],
			"min":[
				-1,
				-1,
				-1
			],
			"type":"VEC3"
		},
		{
			"bufferView":6,
			"componentType":5126,
			"count":24,
			"type":"VEC3"
		},
		{
			"bufferView":7,
			"componentType":5126,
			"count":24,
			"type":"VEC2"
		},
		{
			"bufferView":8,
			"componentType":5126,
			"count":24,
			"type":"VEC4"
		},
		{
			"bufferView":9,
			"componentType":5123,
			"count":36,
			"type":"SCALAR"
		},
		{
			"bufferView":10,
			"componentType":5126,
			"count":4,
			"max":[
				0.5,
				0,
				0.5
			],
			"min":[
				-0.5,
				0,
				-0.5
			],
			"type":"VEC3"
		},
		{
			"bufferView":11,
			"componentType":5126,
			"count":4,
			"type":"VEC3"
		},
		{
			"bufferView":12,
			"componentType":5126,
			"count":4,
			"type":"VEC2"
		},
		{
			"bufferView":13,
			"componentType":5126,
			"count":4,
			"type":"VEC4"
		},
		{
			"bufferView":14,
			"componentType":5123,
			"count":6,
			"type":"SCALAR"
		}
	],
	"bufferViews":[
		{
			"buffer":0,
			"byteLength":52716,
			"byteOffset":0,
			"target":34962
		},
		{
			"buffer":0,
			"byteLength":52716,
			"byteOffset":52716,
			"target":34962
		},
		{
			"buffer":0,
			"byteLength":35144,
			"byteOffset":105432,
			"target":34962
		},
		{
			"buffer":0,
			"byteLength":70288,
			"byteOffset":140576,
			"target":34962
		},
		{
			"buffer":0,
			"byteLength":13824,
			"byteOffset":210864,
			"target":34963
		},
		{
			"buffer":0,
			"byteLength":288,
			"byteOffset":224688,
			"target":34962
		},
		{
			"buffer":0,
			"byteLength":288,
			"byteOffset":224976,
			"target":34962
		},
		{
			"buffer":0,
			"byteLength":192,
			"byteOffset":225264,
			"target":34962
		},
		{
			"buffer":0,
			"byteLength":384,
			"byteOffset":225456,
			"target":34962
		},
		{
			"buffer":0,
			"byteLength":72,
			"byteOffset":225840,
			"target":34963
		},
		{
			"buffer":0,
			"byteLength":48,
			"byteOffset":225912,
			"target":34962
		},
		{
			"buffer":0,
			"byteLength":48,
			"byteOffset":225960,
			"target":34962
		},
		{
			"buffer":0,
			"byteLength":32,
			"byteOffset":226008,
			"target":34962
		},
		{
			"buffer":0,
			"byteLength":64,
			"byteOffset":226040,
			"target":34962
		},
		{
			"buffer":0,
			"byteLength":12,
			"byteOffset":226104,
			"target":34963
		}
	],
	"buffers":[
		{
			"byteLength":226116,
			"uri":"baumstumpf-96c9dbae6481bb826b33808dfb1e7729.bin"
		}
	]
}
