{
	"asset":{
		"generator":"Khronos glTF Blender I/O v4.5.47",
		"version":"2.0"
	},
	"extensionsUsed":[
		"KHR_lights_punctual"
	],
	"extensionsRequired":[
		"KHR_lights_punctual"
	],
	"extensions":{
		"KHR_lights_punctual":{
			"lights":[
				{
					"color":[
						1,
						0.42389941215515137,
						0.026444800198078156
					],
					"intensity":7.957747154594767,
					"type":"point",
					"name":"Point"
				}
			]
		}
	},
	"scene":0,
	"scenes":[
		{
			"name":"Scene",
			"nodes":[
				0,
				1,
				2,
				3,
				4,
				5
			]
		}
	],
	"nodes":[
		{
			"mesh":0,
			"name":"Sphere"
		},
		{
			"mesh":1,
			"name":"Cylinder.001",
			"rotation":[
				0.7071068286895752,
				0,
				0,
				0.7071068286895752
			],
			"scale":[
				1,
				0.30000001192092896,
				1
			]
		},
		{
			"mesh":2,
			"name":"Cylinder.003",
			"rotation":[
				0,
				0,
				-0.35289493203163147,
				0.9356630444526672
			],
			"scale":[
				0.10000000149011612,
				0.10000000149011612,
				0.10000000149011612
			],
			"translation":[
				0.07297234237194061,
				1.1774036884307861,
				0
			]
		},
		{
			"extensions":{
				"KHR_lights_punctual":{
					"light":0
				}
			},
			"name":"Point",
			"rotation":[
				-0.7071068286895752,
				0,
				0,
				0.7071068286895752
			],
			"translation":[
				0.9089904427528381,
				1.2048369646072388,
				0
			]
		},
		{
			"mesh":3,
			"name":"flame",
			"rotation":[
				0.584242045879364,
				0,
				0,
				0.8115794658660889
			],
			"scale":[
				0.2918362617492676,
				0.2918362617492676,
				0.2918362617492676
			],
			"translation":[
				1.006042242050171,
				1.1996222734451294,
				-0.00948268175125122
			]
		},
		{
			"mesh":4,
			"name":"sring"
		}
	],
	"materials":[
		{
			"alphaMode":"BLEND",
			"doubleSided":true,
			"name":"boomtextur",
			"pbrMetallicRoughness":{
				"metallicFactor":0,
				"roughnessFactor":0.5
			}
		},
		{
			"alphaMode":"BLEND",
			"doubleSided":true,
			"name":"sring",
			"pbrMetallicRoughness":{
				"metallicFactor":0,
				"roughnessFactor":0.5
			}
		},
		{
			"alphaMode":"BLEND",
			"doubleSided":true,
			"name":"flame",
			"pbrMetallicRoughness":{
				"metallicFactor":0,
				"roughnessFactor":0.5
			}
		}
	],
	"meshes":[
		{
			"name":"Sphere",
			"primitives":[
				{
					"attributes":{
						"POSITION":0,
						"NORMAL":1,
						"TEXCOORD_0":2,
						"TANGENT":3
					},
					"indices":4,
					"material":0
				}
			]
		},
		{
			"name":"Cylinder.001",
			"primitives":[
				{
					"attributes":{
						"POSITION":5,
						"NORMAL":6,
						"TEXCOORD_0":7
					},
					"indices":8,
					"material":1
				}
			]
		},
		{
			"name":"Cylinder.003",
			"primitives":[
				{
					"attributes":{
						"POSITION":9,
						"NORMAL":10,
						"TEXCOORD_0":11
					},
					"indices":12,
					"material":1
				}
			]
		},
		{
			"name":"flame.001",
			"primitives":[
				{
					"attributes":{
						"POSITION":13,
						"NORMAL":14,
						"TEXCOORD_0":15,
						"TANGENT":16
					},
					"indices":17,
					"material":2
				}
			]
		},
		{
			"name":"sring.001",
			"primitives":[
				{
					"attributes":{
						"POSITION":18,
						"NORMAL":19,
						"TEXCOORD_0":20,
						"TANGENT":21
					},
					"indices":17,
					"material":1
				}
			]
		}
	],
	"accessors":[
		{
			"bufferView":0,
			"componentType":5126,
			"count":559,
			"max":[
				0.9999997019767761,
				1,
				0.9999993443489075
			],
			"min":[
				-0.9999990463256836,
				-1,
				-1
			],
			"type":"VEC3"
		},
		{
			"bufferView":1,
			"componentType":5126,
			"count":559,
			"type":"VEC3"
		},
		{
			"bufferView":2,
			"componentType":5126,
			"count":559,
			"type":"VEC2"
		},
		{
			"bufferView":3,
			"componentType":5126,
			"count":559,
			"type":"VEC4"
		},
		{
			"bufferView":4,
			"componentType":5123,
			"count":2880,
			"type":"SCALAR"
		},
		{
			"bufferView":5,
			"componentType":5126,
			"count":260,
			"max":[
				1,
				3.3333332538604736,
				1
			],
			"min":[
				-1,
				-3.3333332538604736,
				-1
			],
			"type":"VEC3"
		},
		{
			"bufferView":6,
			"componentType":5126,
			"count":260,
			"type":"VEC3"
		},
		{
			"bufferView":7,
			"componentType":5126,
			"count":260,
			"type":"VEC2"
		},
		{
			"bufferView":8,
			"componentType":5123,
			"count":744,
			"type":"SCALAR"
		},
		{
			"bufferView":9,
			"componentType":5126,
			"count":1073,
			"max":[
				8.36014175415039,
				5.699979782104492,
				1
			],
			"min":[
				-1.0655895471572876,
				-2.791266441345215,
				-1
			],
			"type":"VEC3"
		},
		{
			"bufferView":10,
			"componentType":5126,
			"count":1073,
			"type":"VEC3"
		},
		{
			"bufferView":11,
			"componentType":5126,
			"count":1073,
			"type":"VEC2"
		},
		{
			"bufferView":12,
			"componentType":5123,
			"count":3168,
			"type":"SCALAR"
		},
		{
			"bufferView":13,
			"componentType":5126,
			"count":4,
			"max":[
				0.5,
				0,
				0.5
			],
			"min":[
				-0.5,
				0,
				-0.5
			],
			"type":"VEC3"
		},
		{
			"bufferView":14,
			"componentType":5126,
			"count":4,
			"type":"VEC3"
		},
		{
			"bufferView":15,
			"componentType":5126,
			"count":4,
			"type":"VEC2"
		},
		{
			"bufferView":16,
			"componentType":5126,
			"count":4,
			"type":"VEC4"
		},
		{
			"bufferView":17,
			"componentType":5123,
			"count":6,
			"type":"SCALAR"
		},
		{
			"bufferView":18,
			"componentType":5126,
			"count":4,
			"max":[
				0.5,
				0,
				0.5
			],
			"min":[
				-0.5,
				0,
				-0.5
			],
			"type":"VEC3"
		},
		{
			"bufferView":19,
			"componentType":5126,
			"count":4,
			"type":"VEC3"
		},
		{
			"bufferView":20,
			"componentType":5126,
			"count":4,
			"type":"VEC2"
		},
		{
			"bufferView":21,
			"componentType":5126,
			"count":4,
			"type":"VEC4"
		}
	],
	"bufferViews":[
		{
			"buffer":0,
			"byteLength":6708,
			"byteOffset":0,
			"target":34962
		},
		{
			"buffer":0,
			"byteLength":6708,
			"byteOffset":6708,
			"target":34962
		},
		{
			"buffer":0,
			"byteLength":4472,
			"byteOffset":13416,
			"target":34962
		},
		{
			"buffer":0,
			"byteLength":8944,
			"byteOffset":17888,
			"target":34962
		},
		{
			"buffer":0,
			"byteLength":5760,
			"byteOffset":26832,
			"target":34963
		},
		{
			"buffer":0,
			"byteLength":3120,
			"byteOffset":32592,
			"target":34962
		},
		{
			"buffer":0,
			"byteLength":3120,
			"byteOffset":35712,
			"target":34962
		},
		{
			"buffer":0,
			"byteLength":2080,
			"byteOffset":38832,
			"target":34962
		},
		{
			"buffer":0,
			"byteLength":1488,
			"byteOffset":40912,
			"target":34963
		},
		{
			"buffer":0,
			"byteLength":12876,
			"byteOffset":42400,
			"target":34962
		},
		{
			"buffer":0,
			"byteLength":12876,
			"byteOffset":55276,
			"target":34962
		},
		{
			"buffer":0,
			"byteLength":8584,
			"byteOffset":68152,
			"target":34962
		},
		{
			"buffer":0,
			"byteLength":6336,
			"byteOffset":76736,
			"target":34963
		},
		{
			"buffer":0,
			"byteLength":48,
			"byteOffset":83072,
			"target":34962
		},
		{
			"buffer":0,
			"byteLength":48,
			"byteOffset":83120,
			"target":34962
		},
		{
			"buffer":0,
			"byteLength":32,
			"byteOffset":83168,
			"target":34962
		},
		{
			"buffer":0,
			"byteLength":64,
			"byteOffset":83200,
			"target":34962
		},
		{
			"buffer":0,
			"byteLength":12,
			"byteOffset":83264,
			"target":34963
		},
		{
			"buffer":0,
			"byteLength":48,
			"byteOffset":83276,
			"target":34962
		},
		{
			"buffer":0,
			"byteLength":48,
			"byteOffset":83324,
			"target":34962
		},
		{
			"buffer":0,
			"byteLength":32,
			"byteOffset":83372,
			"target":34962
		},
		{
			"buffer":0,
			"byteLength":64,
			"byteOffset":83404,
			"target":34962
		}
	],
	"buffers":[
		{
			"byteLength":83468,
			"uri":"boom-36c4b857c513dea54c3d239b69181295.bin"
		}
	]
}
