{
	"asset":{
		"generator":"Khronos glTF Blender I/O v4.5.47",
		"version":"2.0"
	},
	"scene":0,
	"scenes":[
		{
			"name":"Scene",
			"nodes":[
				0,
				1,
				2,
				3,
				4,
				5
			]
		}
	],
	"nodes":[
		{
			"mesh":0,
			"name":"Cube",
			"scale":[
				0.1522998809814453,
				2.742964744567871,
				0.16456598043441772
			],
			"translation":[
				0.03696739673614502,
				0,
				0
			]
		},
		{
			"mesh":1,
			"name":"Plane",
			"rotation":[
				0.01451178640127182,
				-0.04851708561182022,
				-0.6994922757148743,
				0.712843656539917
			],
			"scale":[
				1.0358376502990723,
				0.2920924127101898,
				0.08628351241350174
			],
			"translation":[
				-0.07172548770904541,
				-1.2429723739624023,
				0
			]
		},
		{
			"mesh":2,
			"name":"Plane.001",
			"rotation":[
				0.01451178640127182,
				-0.04851708561182022,
				-0.6994922757148743,
				0.712843656539917
			],
			"scale":[
				1.0358376502990723,
				0.2920924127101898,
				0.08628351241350174
			],
			"translation":[
				-0.07172548770904541,
				1.159024953842163,
				0
			]
		},
		{
			"mesh":3,
			"name":"Cylinder",
			"rotation":[
				-0.14638195931911469,
				0.08219849318265915,
				-0.7369067072868347,
				0.654816210269928
			],
			"scale":[
				-0.06527020782232285,
				-0.9999658465385437,
				-0.09250862896442413
			],
			"translation":[
				0,
				0,
				1.454881191253662
			]
		},
		{
			"mesh":4,
			"name":"Cone",
			"rotation":[
				0.09871141612529755,
				0.1016383096575737,
				0.6896740794181824,
				0.7101235389709473
			],
			"translation":[
				-1.058915615081787,
				0.11458621174097061,
				1.7924038171768188
			]
		},
		{
			"mesh":5,
			"name":"Plane.002",
			"rotation":[
				0.5930071473121643,
				-0.005422139074653387,
				-0.1602477729320526,
				0.7890716195106506
			],
			"scale":[
				0.3489196300506592,
				0.3909037113189697,
				0.2598072588443756
			],
			"translation":[
				0.7798268795013428,
				-0.16165073215961456,
				1.2448426485061646
			]
		}
	],
	"animations":[
		{
			"channels":[
				{
					"sampler":0,
					"target":{
						"node":1,
						"path":"translation"
					}
				},
				{
					"sampler":1,
					"target":{
						"node":1,
						"path":"rotation"
					}
				},
				{
					"sampler":2,
					"target":{
						"node":1,
						"path":"scale"
					}
				}
			],
			"name":"PlaneAction",
			"samplers":[
				{
					"input":27,
					"interpolation":"LINEAR",
					"output":28
				},
				{
					"input":27,
					"interpolation":"LINEAR",
					"output":29
				},
				{
					"input":27,
					"interpolation":"LINEAR",
					"output":30
				}
			]
		},
		{
			"channels":[
				{
					"sampler":0,
					"target":{
						"node":2,
						"path":"translation"
					}
				},
				{
					"sampler":1,
					"target":{
						"node":2,
						"path":"rotation"
					}
				},
				{
					"sampler":2,
					"target":{
						"node":2,
						"path":"scale"
					}
				}
			],
			"name":"PlaneAction.001",
			"samplers":[
				{
					"input":27,
					"interpolation":"LINEAR",
					"output":31
				},
				{
					"input":27,
					"interpolation":"LINEAR",
					"output":32
				},
				{
					"input":27,
					"interpolation":"LINEAR",
					"output":33
				}
			]
		},
		{
			"channels":[
				{
					"sampler":0,
					"target":{
						"node":3,
						"path":"translation"
					}
				},
				{
					"sampler":1,
					"target":{
						"node":3,
						"path":"rotation"
					}
				},
				{
					"sampler":2,
					"target":{
						"node":3,
						"path":"scale"
					}
				}
			],
			"name":"CylinderAction",
			"samplers":[
				{
					"input":34,
					"interpolation":"LINEAR",
					"output":35
				},
				{
					"input":34,
					"interpolation":"LINEAR",
					"output":36
				},
				{
					"input":37,
					"interpolation":"STEP",
					"output":38
				}
			]
		},
		{
			"channels":[
				{
					"sampler":0,
					"target":{
						"node":4,
						"path":"translation"
					}
				},
				{
					"sampler":1,
					"target":{
						"node":4,
						"path":"rotation"
					}
				}
			],
			"name":"ConeAction",
			"samplers":[
				{
					"input":34,
					"interpolation":"LINEAR",
					"output":39
				},
				{
					"input":37,
					"interpolation":"STEP",
					"output":40
				}
			]
		},
		{
			"channels":[
				{
					"sampler":0,
					"target":{
						"node":5,
						"path":"translation"
					}
				},
				{
					"sampler":1,
					"target":{
						"node":5,
						"path":"rotation"
					}
				},
				{
					"sampler":2,
					"target":{
						"node":5,
						"path":"scale"
					}
				}
			],
			"name":"Plane.002Action",
			"samplers":[
				{
					"input":34,
					"interpolation":"LINEAR",
					"output":41
				},
				{
					"input":37,
					"interpolation":"STEP",
					"output":42
				},
				{
					"input":37,
					"interpolation":"STEP",
					"output":43
				}
			]
		}
	],
	"materials":[
		{
			"doubleSided":true,
			"name":"Material.001",
			"pbrMetallicRoughness":{
				"baseColorFactor":[
					0.05448000505566597,
					0,
					0.0012141091283410788,
					1
				],
				"metallicFactor":0
			}
		},
		{
			"doubleSided":true,
			"name":"Material.003",
			"pbrMetallicRoughness":{
				"baseColorFactor":[
					0.05448000505566597,
					0,
					0.0012141091283410788,
					1
				],
				"metallicFactor":0
			}
		},
		{
			"doubleSided":true,
			"name":"Material.004",
			"pbrMetallicRoughness":{
				"baseColorFactor":[
					0.8003778457641602,
					0,
					0.002642766572535038,
					1
				],
				"roughnessFactor":0
			}
		}
	],
	"meshes":[
		{
			"name":"Cube.001",
			"primitives":[
				{
					"attributes":{
						"POSITION":0,
						"NORMAL":1,
						"TEXCOORD_0":2,
						"TANGENT":3
					},
					"indices":4,
					"material":0
				}
			]
		},
		{
			"name":"Plane",
			"primitives":[
				{
					"attributes":{
						"POSITION":5,
						"NORMAL":6,
						"TEXCOORD_0":7,
						"TANGENT":8
					},
					"indices":9
				}
			]
		},
		{
			"name":"Plane.003",
			"primitives":[
				{
					"attributes":{
						"POSITION":10,
						"NORMAL":11,
						"TEXCOORD_0":12,
						"TANGENT":13
					},
					"indices":9
				}
			]
		},
		{
			"name":"Cylinder",
			"primitives":[
				{
					"attributes":{
						"POSITION":14,
						"NORMAL":15,
						"TEXCOORD_0":16
					},
					"indices":17,
					"material":1
				}
			]
		},
		{
			"name":"Cone",
			"primitives":[
				{
					"attributes":{
						"POSITION":18,
						"NORMAL":19,
						"TEXCOORD_0":20,
						"TANGENT":21
					},
					"indices":22,
					"material":2
				}
			]
		},
		{
			"name":"Plane.004",
			"primitives":[
				{
					"attributes":{
						"POSITION":23,
						"NORMAL":24,
						"TEXCOORD_0":25,
						"TANGENT":26
					},
					"indices":9
				}
			]
		}
	],
	"accessors":[
		{
			"bufferView":0,
			"componentType":5126,
			"count":56,
			"max":[
				0.6575937271118164,
				1,
				1
			],
			"min":[
				-3.8043251037597656,
				-1,
				-1
			],
			"type":"VEC3"
		},
		{
			"bufferView":1,
			"componentType":5126,
			"count":56,
			"type":"VEC3"
		},
		{
			"bufferView":2,
			"componentType":5126,
			"count":56,
			"type":"VEC2"
		},
		{
			"bufferView":3,
			"componentType":5126,
			"count":56,
			"type":"VEC4"
		},
		{
			"bufferView":4,
			"componentType":5123,
			"count":84,
			"type":"SCALAR"
		},
		{
			"bufferView":5,
			"componentType":5126,
			"count":4,
			"max":[
				1,
				0,
				1
			],
			"min":[
				-1,
				0,
				-1
			],
			"type":"VEC3"
		},
		{
			"bufferView":6,
			"componentType":5126,
			"count":4,
			"type":"VEC3"
		},
		{
			"bufferView":7,
			"componentType":5126,
			"count":4,
			"type":"VEC2"
		},
		{
			"bufferView":8,
			"componentType":5126,
			"count":4,
			"type":"VEC4"
		},
		{
			"bufferView":9,
			"componentType":5123,
			"count":6,
			"type":"SCALAR"
		},
		{
			"bufferView":10,
			"componentType":5126,
			"count":4,
			"max":[
				1,
				0,
				1
			],
			"min":[
				-1,
				0,
				-1
			],
			"type":"VEC3"
		},
		{
			"bufferView":11,
			"componentType":5126,
			"count":4,
			"type":"VEC3"
		},
		{
			"bufferView":12,
			"componentType":5126,
			"count":4,
			"type":"VEC2"
		},
		{
			"bufferView":13,
			"componentType":5126,
			"count":4,
			"type":"VEC4"
		},
		{
			"bufferView":14,
			"componentType":5126,
			"count":192,
			"max":[
				1,
				1,
				1
			],
			"min":[
				-1,
				-1,
				-1
			],
			"type":"VEC3"
		},
		{
			"bufferView":15,
			"componentType":5126,
			"count":192,
			"type":"VEC3"
		},
		{
			"bufferView":16,
			"componentType":5126,
			"count":192,
			"type":"VEC2"
		},
		{
			"bufferView":17,
			"componentType":5123,
			"count":372,
			"type":"SCALAR"
		},
		{
			"bufferView":18,
			"componentType":5126,
			"count":12,
			"max":[
				0.1818653643131256,
				0.25,
				0.10500001907348633
			],
			"min":[
				-0.1818653643131256,
				-0.25,
				-0.21000003814697266
			],
			"type":"VEC3"
		},
		{
			"bufferView":19,
			"componentType":5126,
			"count":12,
			"type":"VEC3"
		},
		{
			"bufferView":20,
			"componentType":5126,
			"count":12,
			"type":"VEC2"
		},
		{
			"bufferView":21,
			"componentType":5126,
			"count":12,
			"type":"VEC4"
		},
		{
			"bufferView":22,
			"componentType":5123,
			"count":12,
			"type":"SCALAR"
		},
		{
			"bufferView":23,
			"componentType":5126,
			"count":4,
			"max":[
				1,
				0,
				1
			],
			"min":[
				-1,
				0,
				-1
			],
			"type":"VEC3"
		},
		{
			"bufferView":24,
			"componentType":5126,
			"count":4,
			"type":"VEC3"
		},
		{
			"bufferView":25,
			"componentType":5126,
			"count":4,
			"type":"VEC2"
		},
		{
			"bufferView":26,
			"componentType":5126,
			"count":4,
			"type":"VEC4"
		},
		{
			"bufferView":27,
			"componentType":5126,
			"count":48,
			"max":[
				2.0416666666666665
			],
			"min":[
				0.08333333333333333
			],
			"type":"SCALAR"
		},
		{
			"bufferView":28,
			"componentType":5126,
			"count":48,
			"type":"VEC3"
		},
		{
			"bufferView":29,
			"componentType":5126,
			"count":48,
			"type":"VEC4"
		},
		{
			"bufferView":30,
			"componentType":5126,
			"count":48,
			"type":"VEC3"
		},
		{
			"bufferView":31,
			"componentType":5126,
			"count":48,
			"type":"VEC3"
		},
		{
			"bufferView":32,
			"componentType":5126,
			"count":48,
			"type":"VEC4"
		},
		{
			"bufferView":33,
			"componentType":5126,
			"count":48,
			"type":"VEC3"
		},
		{
			"bufferView":34,
			"componentType":5126,
			"count":45,
			"max":[
				2.3333333333333335
			],
			"min":[
				0.5
			],
			"type":"SCALAR"
		},
		{
			"bufferView":35,
			"componentType":5126,
			"count":45,
			"type":"VEC3"
		},
		{
			"bufferView":36,
			"componentType":5126,
			"count":45,
			"type":"VEC4"
		},
		{
			"bufferView":37,
			"componentType":5126,
			"count":2,
			"max":[
				2.3333333333333335
			],
			"min":[
				0.5
			],
			"type":"SCALAR"
		},
		{
			"bufferView":38,
			"componentType":5126,
			"count":2,
			"type":"VEC3"
		},
		{
			"bufferView":39,
			"componentType":5126,
			"count":45,
			"type":"VEC3"
		},
		{
			"bufferView":40,
			"componentType":5126,
			"count":2,
			"type":"VEC4"
		},
		{
			"bufferView":41,
			"componentType":5126,
			"count":45,
			"type":"VEC3"
		},
		{
			"bufferView":42,
			"componentType":5126,
			"count":2,
			"type":"VEC4"
		},
		{
			"bufferView":43,
			"componentType":5126,
			"count":2,
			"type":"VEC3"
		}
	],
	"bufferViews":[
		{
			"buffer":0,
			"byteLength":672,
			"byteOffset":0,
			"target":34962
		},
		{
			"buffer":0,
			"byteLength":672,
			"byteOffset":672,
			"target":34962
		},
		{
			"buffer":0,
			"byteLength":448,
			"byteOffset":1344,
			"target":34962
		},
		{
			"buffer":0,
			"byteLength":896,
			"byteOffset":1792,
			"target":34962
		},
		{
			"buffer":0,
			"byteLength":168,
			"byteOffset":2688,
			"target":34963
		},
		{
			"buffer":0,
			"byteLength":48,
			"byteOffset":2856,
			"target":34962
		},
		{
			"buffer":0,
			"byteLength":48,
			"byteOffset":2904,
			"target":34962
		},
		{
			"buffer":0,
			"byteLength":32,
			"byteOffset":2952,
			"target":34962
		},
		{
			"buffer":0,
			"byteLength":64,
			"byteOffset":2984,
			"target":34962
		},
		{
			"buffer":0,
			"byteLength":12,
			"byteOffset":3048,
			"target":34963
		},
		{
			"buffer":0,
			"byteLength":48,
			"byteOffset":3060,
			"target":34962
		},
		{
			"buffer":0,
			"byteLength":48,
			"byteOffset":3108,
			"target":34962
		},
		{
			"buffer":0,
			"byteLength":32,
			"byteOffset":3156,
			"target":34962
		},
		{
			"buffer":0,
			"byteLength":64,
			"byteOffset":3188,
			"target":34962
		},
		{
			"buffer":0,
			"byteLength":2304,
			"byteOffset":3252,
			"target":34962
		},
		{
			"buffer":0,
			"byteLength":2304,
			"byteOffset":5556,
			"target":34962
		},
		{
			"buffer":0,
			"byteLength":1536,
			"byteOffset":7860,
			"target":34962
		},
		{
			"buffer":0,
			"byteLength":744,
			"byteOffset":9396,
			"target":34963
		},
		{
			"buffer":0,
			"byteLength":144,
			"byteOffset":10140,
			"target":34962
		},
		{
			"buffer":0,
			"byteLength":144,
			"byteOffset":10284,
			"target":34962
		},
		{
			"buffer":0,
			"byteLength":96,
			"byteOffset":10428,
			"target":34962
		},
		{
			"buffer":0,
			"byteLength":192,
			"byteOffset":10524,
			"target":34962
		},
		{
			"buffer":0,
			"byteLength":24,
			"byteOffset":10716,
			"target":34963
		},
		{
			"buffer":0,
			"byteLength":48,
			"byteOffset":10740,
			"target":34962
		},
		{
			"buffer":0,
			"byteLength":48,
			"byteOffset":10788,
			"target":34962
		},
		{
			"buffer":0,
			"byteLength":32,
			"byteOffset":10836,
			"target":34962
		},
		{
			"buffer":0,
			"byteLength":64,
			"byteOffset":10868,
			"target":34962
		},
		{
			"buffer":0,
			"byteLength":192,
			"byteOffset":10932
		},
		{
			"buffer":0,
			"byteLength":576,
			"byteOffset":11124
		},
		{
			"buffer":0,
			"byteLength":768,
			"byteOffset":11700
		},
		{
			"buffer":0,
			"byteLength":576,
			"byteOffset":12468
		},
		{
			"buffer":0,
			"byteLength":576,
			"byteOffset":13044
		},
		{
			"buffer":0,
			"byteLength":768,
			"byteOffset":13620
		},
		{
			"buffer":0,
			"byteLength":576,
			"byteOffset":14388
		},
		{
			"buffer":0,
			"byteLength":180,
			"byteOffset":14964
		},
		{
			"buffer":0,
			"byteLength":540,
			"byteOffset":15144
		},
		{
			"buffer":0,
			"byteLength":720,
			"byteOffset":15684
		},
		{
			"buffer":0,
			"byteLength":8,
			"byteOffset":16404
		},
		{
			"buffer":0,
			"byteLength":24,
			"byteOffset":16412
		},
		{
			"buffer":0,
			"byteLength":540,
			"byteOffset":16436
		},
		{
			"buffer":0,
			"byteLength":32,
			"byteOffset":16976
		},
		{
			"buffer":0,
			"byteLength":540,
			"byteOffset":17008
		},
		{
			"buffer":0,
			"byteLength":32,
			"byteOffset":17548
		},
		{
			"buffer":0,
			"byteLength":24,
			"byteOffset":17580
		}
	],
	"buffers":[
		{
			"byteLength":17604,
			"uri":"bow-9824d5d25f10c2c160873f9f51a4f92d.bin"
		}
	]
}
