{
	"asset":{
		"generator":"Khronos glTF Blender I/O v4.5.47",
		"version":"2.0"
	},
	"extensionsUsed":[
		"KHR_lights_punctual"
	],
	"extensionsRequired":[
		"KHR_lights_punctual"
	],
	"extensions":{
		"KHR_lights_punctual":{
			"lights":[
				{
					"color":[
						1,
						0.2025638222694397,
						0.026444800198078156
					],
					"intensity":1.7507043740108488,
					"type":"point",
					"name":"Point"
				}
			]
		}
	},
	"scene":0,
	"scenes":[
		{
			"name":"Scene",
			"nodes":[
				0,
				1,
				2,
				3,
				4,
				5,
				6,
				7,
				8
			]
		}
	],
	"nodes":[
		{
			"mesh":0,
			"name":"Cube",
			"scale":[
				1.2215015888214111,
				0.18616175651550293,
				2.950409412384033
			],
			"translation":[
				0,
				1.0160659551620483,
				0
			]
		},
		{
			"mesh":1,
			"name":"Cube.001",
			"scale":[
				1,
				1,
				0.2933797836303711
			],
			"translation":[
				0,
				0,
				-2.2329652309417725
			]
		},
		{
			"mesh":2,
			"name":"Cube.002",
			"scale":[
				1,
				1,
				0.2933797836303711
			],
			"translation":[
				0,
				0,
				2.184610605239868
			]
		},
		{
			"mesh":3,
			"name":"blueprintmediva",
			"rotation":[
				0,
				0.944580614566803,
				0,
				0.32827985286712646
			],
			"translation":[
				0.42140641808509827,
				1.2665066719055176,
				-1.4956096410751343
			]
		},
		{
			"mesh":4,
			"name":"Cylinder",
			"scale":[
				0.25480467081069946,
				0.3868464529514313,
				0.25480467081069946
			],
			"translation":[
				0,
				1.5889012813568115,
				-2.154242992401123
			]
		},
		{
			"mesh":5,
			"name":"Cube.003",
			"rotation":[
				0,
				0.33470556139945984,
				0,
				0.9423227906227112
			],
			"scale":[
				0.5255283117294312,
				0.40024304389953613,
				1
			],
			"translation":[
				0,
				1.6087195873260498,
				1.5701849460601807
			]
		},
		{
			"mesh":6,
			"name":"Cylinder.001",
			"scale":[
				-0.04491952806711197,
				-0.11479678004980087,
				-0.04491952806711197
			],
			"translation":[
				0,
				2.017077922821045,
				-2.1856465339660645
			]
		},
		{
			"mesh":7,
			"name":"flame",
			"rotation":[
				0.48398908972740173,
				0.5013706088066101,
				-0.5160056352615356,
				0.49811676144599915
			],
			"scale":[
				0.4642156660556793,
				0.4642156958580017,
				0.46421563625335693
			],
			"translation":[
				-0.006046280264854431,
				2.324883460998535,
				-2.1719911098480225
			]
		},
		{
			"extensions":{
				"KHR_lights_punctual":{
					"light":0
				}
			},
			"name":"Point",
			"rotation":[
				-0.7071068286895752,
				0,
				0,
				0.7071068286895752
			],
			"translation":[
				0,
				2.178483724594116,
				-2.149794816970825
			]
		}
	],
	"materials":[
		{
			"alphaMode":"BLEND",
			"doubleSided":true,
			"name":"rinde(inen(mediva))",
			"pbrMetallicRoughness":{
				"metallicFactor":0,
				"roughnessFactor":0.5
			}
		},
		{
			"alphaMode":"BLEND",
			"doubleSided":true,
			"name":"blueprintmediva",
			"pbrMetallicRoughness":{
				"metallicFactor":0,
				"roughnessFactor":0.5
			}
		},
		{
			"alphaMode":"BLEND",
			"doubleSided":true,
			"name":"candlemediva",
			"pbrMetallicRoughness":{
				"metallicFactor":0,
				"roughnessFactor":0.5
			}
		},
		{
			"alphaMode":"BLEND",
			"doubleSided":true,
			"name":"buildingboxmediva",
			"pbrMetallicRoughness":{
				"metallicFactor":0,
				"roughnessFactor":0.5
			}
		},
		{
			"alphaMode":"BLEND",
			"doubleSided":true,
			"name":"sring",
			"pbrMetallicRoughness":{
				"metallicFactor":0,
				"roughnessFactor":0.5
			}
		},
		{
			"alphaMode":"BLEND",
			"doubleSided":true,
			"name":"flame",
			"pbrMetallicRoughness":{
				"metallicFactor":0,
				"roughnessFactor":0.5
			}
		}
	],
	"meshes":[
		{
			"name":"Cube.001",
			"primitives":[
				{
					"attributes":{
						"POSITION":0,
						"NORMAL":1,
						"TEXCOORD_0":2,
						"TANGENT":3
					},
					"indices":4,
					"material":0
				}
			]
		},
		{
			"name":"Cube.002",
			"primitives":[
				{
					"attributes":{
						"POSITION":5,
						"NORMAL":6,
						"TEXCOORD_0":7,
						"TANGENT":8
					},
					"indices":4,
					"material":0
				}
			]
		},
		{
			"name":"Cube.003",
			"primitives":[
				{
					"attributes":{
						"POSITION":9,
						"NORMAL":10,
						"TEXCOORD_0":11,
						"TANGENT":12
					},
					"indices":4,
					"material":0
				}
			]
		},
		{
			"name":"blueprintmediva",
			"primitives":[
				{
					"attributes":{
						"POSITION":13,
						"NORMAL":14,
						"TEXCOORD_0":15,
						"TANGENT":16
					},
					"indices":17,
					"material":1
				}
			]
		},
		{
			"name":"Mesh",
			"primitives":[
				{
					"attributes":{
						"POSITION":18,
						"NORMAL":19,
						"TEXCOORD_0":20,
						"TANGENT":21
					},
					"indices":22,
					"material":2
				}
			]
		},
		{
			"name":"Cube.004",
			"primitives":[
				{
					"attributes":{
						"POSITION":23,
						"NORMAL":24,
						"TEXCOORD_0":25,
						"TANGENT":26
					},
					"indices":27,
					"material":3
				}
			]
		},
		{
			"name":"Cylinder.001",
			"primitives":[
				{
					"attributes":{
						"POSITION":28,
						"NORMAL":29,
						"TEXCOORD_0":30
					},
					"indices":31,
					"material":4
				}
			]
		},
		{
			"name":"flame",
			"primitives":[
				{
					"attributes":{
						"POSITION":32,
						"NORMAL":33,
						"TEXCOORD_0":34,
						"TANGENT":35
					},
					"indices":17,
					"material":5
				}
			]
		}
	],
	"accessors":[
		{
			"bufferView":0,
			"componentType":5126,
			"count":24,
			"max":[
				1,
				1,
				1
			],
			"min":[
				-1,
				-1,
				-1
			],
			"type":"VEC3"
		},
		{
			"bufferView":1,
			"componentType":5126,
			"count":24,
			"type":"VEC3"
		},
		{
			"bufferView":2,
			"componentType":5126,
			"count":24,
			"type":"VEC2"
		},
		{
			"bufferView":3,
			"componentType":5126,
			"count":24,
			"type":"VEC4"
		},
		{
			"bufferView":4,
			"componentType":5123,
			"count":36,
			"type":"SCALAR"
		},
		{
			"bufferView":5,
			"componentType":5126,
			"count":24,
			"max":[
				1,
				1,
				1
			],
			"min":[
				-1,
				-1,
				-1
			],
			"type":"VEC3"
		},
		{
			"bufferView":6,
			"componentType":5126,
			"count":24,
			"type":"VEC3"
		},
		{
			"bufferView":7,
			"componentType":5126,
			"count":24,
			"type":"VEC2"
		},
		{
			"bufferView":8,
			"componentType":5126,
			"count":24,
			"type":"VEC4"
		},
		{
			"bufferView":9,
			"componentType":5126,
			"count":24,
			"max":[
				1,
				1,
				1
			],
			"min":[
				-1,
				-1,
				-1
			],
			"type":"VEC3"
		},
		{
			"bufferView":10,
			"componentType":5126,
			"count":24,
			"type":"VEC3"
		},
		{
			"bufferView":11,
			"componentType":5126,
			"count":24,
			"type":"VEC2"
		},
		{
			"bufferView":12,
			"componentType":5126,
			"count":24,
			"type":"VEC4"
		},
		{
			"bufferView":13,
			"componentType":5126,
			"count":4,
			"max":[
				0.5,
				0,
				0.5
			],
			"min":[
				-0.5,
				0,
				-0.5
			],
			"type":"VEC3"
		},
		{
			"bufferView":14,
			"componentType":5126,
			"count":4,
			"type":"VEC3"
		},
		{
			"bufferView":15,
			"componentType":5126,
			"count":4,
			"type":"VEC2"
		},
		{
			"bufferView":16,
			"componentType":5126,
			"count":4,
			"type":"VEC4"
		},
		{
			"bufferView":17,
			"componentType":5123,
			"count":6,
			"type":"SCALAR"
		},
		{
			"bufferView":18,
			"componentType":5126,
			"count":5793,
			"max":[
				1.137092113494873,
				1.0000003576278687,
				1.292541742324829
			],
			"min":[
				-1.3493789434432983,
				-1.000000238418579,
				-1.1846363544464111
			],
			"type":"VEC3"
		},
		{
			"bufferView":19,
			"componentType":5126,
			"count":5793,
			"type":"VEC3"
		},
		{
			"bufferView":20,
			"componentType":5126,
			"count":5793,
			"type":"VEC2"
		},
		{
			"bufferView":21,
			"componentType":5126,
			"count":5793,
			"type":"VEC4"
		},
		{
			"bufferView":22,
			"componentType":5123,
			"count":9600,
			"type":"SCALAR"
		},
		{
			"bufferView":23,
			"componentType":5126,
			"count":506,
			"max":[
				1.9356884956359863,
				2.1657891273498535,
				1
			],
			"min":[
				-1,
				-1,
				-1
			],
			"type":"VEC3"
		},
		{
			"bufferView":24,
			"componentType":5126,
			"count":506,
			"type":"VEC3"
		},
		{
			"bufferView":25,
			"componentType":5126,
			"count":506,
			"type":"VEC2"
		},
		{
			"bufferView":26,
			"componentType":5126,
			"count":506,
			"type":"VEC4"
		},
		{
			"bufferView":27,
			"componentType":5123,
			"count":1332,
			"type":"SCALAR"
		},
		{
			"bufferView":28,
			"componentType":5126,
			"count":192,
			"max":[
				1,
				1,
				1
			],
			"min":[
				-1,
				-1,
				-1
			],
			"type":"VEC3"
		},
		{
			"bufferView":29,
			"componentType":5126,
			"count":192,
			"type":"VEC3"
		},
		{
			"bufferView":30,
			"componentType":5126,
			"count":192,
			"type":"VEC2"
		},
		{
			"bufferView":31,
			"componentType":5123,
			"count":372,
			"type":"SCALAR"
		},
		{
			"bufferView":32,
			"componentType":5126,
			"count":4,
			"max":[
				0.5,
				0,
				0.5
			],
			"min":[
				-0.5,
				0,
				-0.5
			],
			"type":"VEC3"
		},
		{
			"bufferView":33,
			"componentType":5126,
			"count":4,
			"type":"VEC3"
		},
		{
			"bufferView":34,
			"componentType":5126,
			"count":4,
			"type":"VEC2"
		},
		{
			"bufferView":35,
			"componentType":5126,
			"count":4,
			"type":"VEC4"
		}
	],
	"bufferViews":[
		{
			"buffer":0,
			"byteLength":288,
			"byteOffset":0,
			"target":34962
		},
		{
			"buffer":0,
			"byteLength":288,
			"byteOffset":288,
			"target":34962
		},
		{
			"buffer":0,
			"byteLength":192,
			"byteOffset":576,
			"target":34962
		},
		{
			"buffer":0,
			"byteLength":384,
			"byteOffset":768,
			"target":34962
		},
		{
			"buffer":0,
			"byteLength":72,
			"byteOffset":1152,
			"target":34963
		},
		{
			"buffer":0,
			"byteLength":288,
			"byteOffset":1224,
			"target":34962
		},
		{
			"buffer":0,
			"byteLength":288,
			"byteOffset":1512,
			"target":34962
		},
		{
			"buffer":0,
			"byteLength":192,
			"byteOffset":1800,
			"target":34962
		},
		{
			"buffer":0,
			"byteLength":384,
			"byteOffset":1992,
			"target":34962
		},
		{
			"buffer":0,
			"byteLength":288,
			"byteOffset":2376,
			"target":34962
		},
		{
			"buffer":0,
			"byteLength":288,
			"byteOffset":2664,
			"target":34962
		},
		{
			"buffer":0,
			"byteLength":192,
			"byteOffset":2952,
			"target":34962
		},
		{
			"buffer":0,
			"byteLength":384,
			"byteOffset":3144,
			"target":34962
		},
		{
			"buffer":0,
			"byteLength":48,
			"byteOffset":3528,
			"target":34962
		},
		{
			"buffer":0,
			"byteLength":48,
			"byteOffset":3576,
			"target":34962
		},
		{
			"buffer":0,
			"byteLength":32,
			"byteOffset":3624,
			"target":34962
		},
		{
			"buffer":0,
			"byteLength":64,
			"byteOffset":3656,
			"target":34962
		},
		{
			"buffer":0,
			"byteLength":12,
			"byteOffset":3720,
			"target":34963
		},
		{
			"buffer":0,
			"byteLength":69516,
			"byteOffset":3732,
			"target":34962
		},
		{
			"buffer":0,
			"byteLength":69516,
			"byteOffset":73248,
			"target":34962
		},
		{
			"buffer":0,
			"byteLength":46344,
			"byteOffset":142764,
			"target":34962
		},
		{
			"buffer":0,
			"byteLength":92688,
			"byteOffset":189108,
			"target":34962
		},
		{
			"buffer":0,
			"byteLength":19200,
			"byteOffset":281796,
			"target":34963
		},
		{
			"buffer":0,
			"byteLength":6072,
			"byteOffset":300996,
			"target":34962
		},
		{
			"buffer":0,
			"byteLength":6072,
			"byteOffset":307068,
			"target":34962
		},
		{
			"buffer":0,
			"byteLength":4048,
			"byteOffset":313140,
			"target":34962
		},
		{
			"buffer":0,
			"byteLength":8096,
			"byteOffset":317188,
			"target":34962
		},
		{
			"buffer":0,
			"byteLength":2664,
			"byteOffset":325284,
			"target":34963
		},
		{
			"buffer":0,
			"byteLength":2304,
			"byteOffset":327948,
			"target":34962
		},
		{
			"buffer":0,
			"byteLength":2304,
			"byteOffset":330252,
			"target":34962
		},
		{
			"buffer":0,
			"byteLength":1536,
			"byteOffset":332556,
			"target":34962
		},
		{
			"buffer":0,
			"byteLength":744,
			"byteOffset":334092,
			"target":34963
		},
		{
			"buffer":0,
			"byteLength":48,
			"byteOffset":334836,
			"target":34962
		},
		{
			"buffer":0,
			"byteLength":48,
			"byteOffset":334884,
			"target":34962
		},
		{
			"buffer":0,
			"byteLength":32,
			"byteOffset":334932,
			"target":34962
		},
		{
			"buffer":0,
			"byteLength":64,
			"byteOffset":334964,
			"target":34962
		}
	],
	"buffers":[
		{
			"byteLength":335028,
			"uri":"building%20box-9ed7f5421b1264e5684a6a7c9c1501fc.bin"
		}
	]
}
