{
	"asset":{
		"generator":"Khronos glTF Blender I/O v4.4.56",
		"version":"2.0"
	},
	"scene":0,
	"scenes":[
		{
			"name":"Scene",
			"nodes":[
				0,
				1,
				2,
				3,
				4
			]
		}
	],
	"nodes":[
		{
			"mesh":0,
			"name":"Cube",
			"scale":[
				1,
				1,
				2.243482828140259
			],
			"translation":[
				-0.017567157745361328,
				0.2445353865623474,
				-0.0051021575927734375
			]
		},
		{
			"mesh":1,
			"name":"Plane",
			"rotation":[
				0,
				0,
				-0.830771267414093,
				0.5566139817237854
			],
			"scale":[
				0.40365779399871826,
				0.651060938835144,
				0.23438194394111633
			],
			"translation":[
				-0.8629551529884338,
				0.6161048412322998,
				-0.18922021985054016
			]
		},
		{
			"mesh":2,
			"name":"Plane.001",
			"rotation":[
				0,
				0,
				-0.830771267414093,
				0.5566139817237854
			],
			"scale":[
				0.40365779399871826,
				0.651060938835144,
				0.23438194394111633
			],
			"translation":[
				-0.9872885942459106,
				0.3359585404396057,
				0.9605628252029419
			]
		},
		{
			"mesh":3,
			"name":"Plane.002",
			"rotation":[
				0,
				0,
				-0.5800712704658508,
				0.8145657181739807
			],
			"scale":[
				0.4036577641963959,
				0.651060938835144,
				0.23438194394111633
			],
			"translation":[
				0.936903715133667,
				0.3359585404396057,
				0.9605628252029419
			]
		},
		{
			"mesh":4,
			"name":"Plane.003",
			"rotation":[
				0,
				0,
				-0.5800712704658508,
				0.8145657181739807
			],
			"scale":[
				0.4036577641963959,
				0.651060938835144,
				0.23438194394111633
			],
			"translation":[
				1.058782696723938,
				-0.11361399292945862,
				-0.7314413785934448
			]
		}
	],
	"materials":[
		{
			"doubleSided":true,
			"name":"Material.008",
			"pbrMetallicRoughness":{
				"baseColorFactor":[
					0.0609450563788414,
					0.8003076910972595,
					0,
					1
				],
				"metallicFactor":0,
				"roughnessFactor":0.5
			}
		},
		{
			"doubleSided":true,
			"name":"Material.009",
			"pbrMetallicRoughness":{
				"baseColorFactor":[
					0.8000785112380981,
					0.1910441815853119,
					0,
					1
				],
				"metallicFactor":0,
				"roughnessFactor":0.5
			}
		},
		{
			"doubleSided":true,
			"name":"Material.010",
			"pbrMetallicRoughness":{
				"baseColorFactor":[
					0.8000785112380981,
					0.1910441815853119,
					0,
					1
				],
				"metallicFactor":0,
				"roughnessFactor":0.5
			}
		},
		{
			"doubleSided":true,
			"name":"Material.011",
			"pbrMetallicRoughness":{
				"baseColorFactor":[
					0.8000785112380981,
					0.1910441815853119,
					0,
					1
				],
				"metallicFactor":0,
				"roughnessFactor":0.5
			}
		},
		{
			"doubleSided":true,
			"name":"Material.012",
			"pbrMetallicRoughness":{
				"baseColorFactor":[
					0.8000785112380981,
					0.1910441815853119,
					0,
					1
				],
				"metallicFactor":0,
				"roughnessFactor":0.5
			}
		}
	],
	"meshes":[
		{
			"name":"Cube.001",
			"primitives":[
				{
					"attributes":{
						"POSITION":0,
						"NORMAL":1,
						"TEXCOORD_0":2,
						"TANGENT":3
					},
					"indices":4,
					"material":0
				}
			]
		},
		{
			"name":"Plane.003",
			"primitives":[
				{
					"attributes":{
						"POSITION":5,
						"NORMAL":6,
						"TEXCOORD_0":7,
						"TANGENT":8
					},
					"indices":9,
					"material":1
				}
			]
		},
		{
			"name":"Plane.004",
			"primitives":[
				{
					"attributes":{
						"POSITION":10,
						"NORMAL":11,
						"TEXCOORD_0":12,
						"TANGENT":13
					},
					"indices":9,
					"material":2
				}
			]
		},
		{
			"name":"Plane.005",
			"primitives":[
				{
					"attributes":{
						"POSITION":14,
						"NORMAL":15,
						"TEXCOORD_0":16,
						"TANGENT":17
					},
					"indices":9,
					"material":3
				}
			]
		},
		{
			"name":"Plane.006",
			"primitives":[
				{
					"attributes":{
						"POSITION":18,
						"NORMAL":19,
						"TEXCOORD_0":20,
						"TANGENT":21
					},
					"indices":9,
					"material":4
				}
			]
		}
	],
	"accessors":[
		{
			"bufferView":0,
			"componentType":5126,
			"count":440,
			"max":[
				1,
				0.9166667461395264,
				0.9972631335258484
			],
			"min":[
				-1,
				-1.0000001192092896,
				-0.9943087697029114
			],
			"type":"VEC3"
		},
		{
			"bufferView":1,
			"componentType":5126,
			"count":440,
			"type":"VEC3"
		},
		{
			"bufferView":2,
			"componentType":5126,
			"count":440,
			"type":"VEC2"
		},
		{
			"bufferView":3,
			"componentType":5126,
			"count":440,
			"type":"VEC4"
		},
		{
			"bufferView":4,
			"componentType":5123,
			"count":672,
			"type":"SCALAR"
		},
		{
			"bufferView":5,
			"componentType":5126,
			"count":9,
			"max":[
				0.9166667461395264,
				0,
				0.9166667461395264
			],
			"min":[
				-0.9166667461395264,
				0,
				-0.9166667461395264
			],
			"type":"VEC3"
		},
		{
			"bufferView":6,
			"componentType":5126,
			"count":9,
			"type":"VEC3"
		},
		{
			"bufferView":7,
			"componentType":5126,
			"count":9,
			"type":"VEC2"
		},
		{
			"bufferView":8,
			"componentType":5126,
			"count":9,
			"type":"VEC4"
		},
		{
			"bufferView":9,
			"componentType":5123,
			"count":24,
			"type":"SCALAR"
		},
		{
			"bufferView":10,
			"componentType":5126,
			"count":9,
			"max":[
				0.9166667461395264,
				0,
				0.9166667461395264
			],
			"min":[
				-0.9166667461395264,
				0,
				-0.9166667461395264
			],
			"type":"VEC3"
		},
		{
			"bufferView":11,
			"componentType":5126,
			"count":9,
			"type":"VEC3"
		},
		{
			"bufferView":12,
			"componentType":5126,
			"count":9,
			"type":"VEC2"
		},
		{
			"bufferView":13,
			"componentType":5126,
			"count":9,
			"type":"VEC4"
		},
		{
			"bufferView":14,
			"componentType":5126,
			"count":9,
			"max":[
				0.9166667461395264,
				0,
				0.9166667461395264
			],
			"min":[
				-0.9166667461395264,
				0,
				-0.9166667461395264
			],
			"type":"VEC3"
		},
		{
			"bufferView":15,
			"componentType":5126,
			"count":9,
			"type":"VEC3"
		},
		{
			"bufferView":16,
			"componentType":5126,
			"count":9,
			"type":"VEC2"
		},
		{
			"bufferView":17,
			"componentType":5126,
			"count":9,
			"type":"VEC4"
		},
		{
			"bufferView":18,
			"componentType":5126,
			"count":9,
			"max":[
				0.9166667461395264,
				0,
				0.9166667461395264
			],
			"min":[
				-0.9166667461395264,
				0,
				-0.9166667461395264
			],
			"type":"VEC3"
		},
		{
			"bufferView":19,
			"componentType":5126,
			"count":9,
			"type":"VEC3"
		},
		{
			"bufferView":20,
			"componentType":5126,
			"count":9,
			"type":"VEC2"
		},
		{
			"bufferView":21,
			"componentType":5126,
			"count":9,
			"type":"VEC4"
		}
	],
	"bufferViews":[
		{
			"buffer":0,
			"byteLength":5280,
			"byteOffset":0,
			"target":34962
		},
		{
			"buffer":0,
			"byteLength":5280,
			"byteOffset":5280,
			"target":34962
		},
		{
			"buffer":0,
			"byteLength":3520,
			"byteOffset":10560,
			"target":34962
		},
		{
			"buffer":0,
			"byteLength":7040,
			"byteOffset":14080,
			"target":34962
		},
		{
			"buffer":0,
			"byteLength":1344,
			"byteOffset":21120,
			"target":34963
		},
		{
			"buffer":0,
			"byteLength":108,
			"byteOffset":22464,
			"target":34962
		},
		{
			"buffer":0,
			"byteLength":108,
			"byteOffset":22572,
			"target":34962
		},
		{
			"buffer":0,
			"byteLength":72,
			"byteOffset":22680,
			"target":34962
		},
		{
			"buffer":0,
			"byteLength":144,
			"byteOffset":22752,
			"target":34962
		},
		{
			"buffer":0,
			"byteLength":48,
			"byteOffset":22896,
			"target":34963
		},
		{
			"buffer":0,
			"byteLength":108,
			"byteOffset":22944,
			"target":34962
		},
		{
			"buffer":0,
			"byteLength":108,
			"byteOffset":23052,
			"target":34962
		},
		{
			"buffer":0,
			"byteLength":72,
			"byteOffset":23160,
			"target":34962
		},
		{
			"buffer":0,
			"byteLength":144,
			"byteOffset":23232,
			"target":34962
		},
		{
			"buffer":0,
			"byteLength":108,
			"byteOffset":23376,
			"target":34962
		},
		{
			"buffer":0,
			"byteLength":108,
			"byteOffset":23484,
			"target":34962
		},
		{
			"buffer":0,
			"byteLength":72,
			"byteOffset":23592,
			"target":34962
		},
		{
			"buffer":0,
			"byteLength":144,
			"byteOffset":23664,
			"target":34962
		},
		{
			"buffer":0,
			"byteLength":108,
			"byteOffset":23808,
			"target":34962
		},
		{
			"buffer":0,
			"byteLength":108,
			"byteOffset":23916,
			"target":34962
		},
		{
			"buffer":0,
			"byteLength":72,
			"byteOffset":24024,
			"target":34962
		},
		{
			"buffer":0,
			"byteLength":144,
			"byteOffset":24096,
			"target":34962
		}
	],
	"buffers":[
		{
			"byteLength":24240,
			"uri":"bush-c59f841e51787068f789d63690b77cd2.bin"
		}
	]
}
