{
	"asset":{
		"generator":"Khronos glTF Blender I/O v4.4.56",
		"version":"2.0"
	},
	"scene":0,
	"scenes":[
		{
			"name":"Scene",
			"nodes":[
				0,
				1,
				2,
				3,
				4,
				5
			]
		}
	],
	"nodes":[
		{
			"mesh":0,
			"name":"Icosphere"
		},
		{
			"mesh":1,
			"name":"Cube.001",
			"rotation":[
				-0.3587523102760315,
				-0.47170114517211914,
				0.526780903339386,
				0.6093412637710571
			],
			"translation":[
				0.7599602937698364,
				-0.5698366761207581,
				0.5003094673156738
			]
		},
		{
			"mesh":2,
			"name":"Icosphere.001",
			"translation":[
				0.835026741027832,
				0.5078353881835938,
				0.3772258758544922
			]
		},
		{
			"mesh":3,
			"name":"Cube",
			"rotation":[
				0,
				0,
				0.3313547670841217,
				0.9435062408447266
			],
			"translation":[
				-0.40268048644065857,
				1.217627763748169,
				0.22887957096099854
			]
		},
		{
			"mesh":4,
			"name":"Cube.003",
			"rotation":[
				0.9856838583946228,
				-0.13456037640571594,
				0.013741331174969673,
				0.10065831989049911
			],
			"translation":[
				0.9879555702209473,
				1.2136486768722534,
				-0.09082037210464478
			]
		},
		{
			"mesh":5,
			"name":"Cube.002",
			"rotation":[
				-0.9443309903144836,
				0.2560846507549286,
				0.05405799672007561,
				0.19934287667274475
			],
			"translation":[
				0.8654342889785767,
				-0.14604270458221436,
				-0.0923750102519989
			]
		}
	],
	"materials":[
		{
			"doubleSided":true,
			"name":"Material.002",
			"pbrMetallicRoughness":{
				"baseColorFactor":[
					0.03221555054187775,
					0.032115381211042404,
					0.033896468579769135,
					1
				],
				"metallicFactor":0,
				"roughnessFactor":0.5
			}
		},
		{
			"doubleSided":true,
			"name":"Material.003",
			"pbrMetallicRoughness":{
				"baseColorFactor":[
					0.8010406494140625,
					0.12348217517137527,
					0,
					1
				],
				"metallicFactor":200,
				"roughnessFactor":0.5
			}
		},
		{
			"doubleSided":true,
			"name":"Material.001",
			"pbrMetallicRoughness":{
				"baseColorFactor":[
					0.048191145062446594,
					0.06032761558890343,
					0.0633755698800087,
					1
				],
				"metallicFactor":0,
				"roughnessFactor":0.5
			}
		},
		{
			"doubleSided":true,
			"name":"Material.004",
			"pbrMetallicRoughness":{
				"baseColorFactor":[
					0,
					0.3480009138584137,
					0.8080120086669922,
					1
				],
				"roughnessFactor":0
			}
		},
		{
			"doubleSided":true,
			"name":"Material.005",
			"pbrMetallicRoughness":{
				"baseColorFactor":[
					0.8003076910972595,
					0.11764073371887207,
					0,
					1
				],
				"roughnessFactor":0.5
			}
		},
		{
			"doubleSided":true,
			"name":"Material.006",
			"pbrMetallicRoughness":{
				"baseColorFactor":[
					0.8025671243667603,
					0.0726013034582138,
					0,
					1
				],
				"roughnessFactor":0.5
			}
		}
	],
	"meshes":[
		{
			"name":"Icosphere",
			"primitives":[
				{
					"attributes":{
						"POSITION":0,
						"NORMAL":1,
						"TEXCOORD_0":2,
						"TANGENT":3
					},
					"indices":4,
					"material":0
				}
			]
		},
		{
			"name":"Cube.003",
			"primitives":[
				{
					"attributes":{
						"POSITION":5,
						"NORMAL":6,
						"TEXCOORD_0":7,
						"TANGENT":8
					},
					"indices":9,
					"material":1
				}
			]
		},
		{
			"name":"Icosphere.001",
			"primitives":[
				{
					"attributes":{
						"POSITION":10,
						"NORMAL":11,
						"TEXCOORD_0":12,
						"TANGENT":13
					},
					"indices":14,
					"material":2
				}
			]
		},
		{
			"name":"Cube.004",
			"primitives":[
				{
					"attributes":{
						"POSITION":15,
						"NORMAL":16
					},
					"indices":9,
					"material":3
				}
			]
		},
		{
			"name":"Cube.007",
			"primitives":[
				{
					"attributes":{
						"POSITION":17,
						"NORMAL":18
					},
					"indices":9,
					"material":4
				}
			]
		},
		{
			"name":"Cube.009",
			"primitives":[
				{
					"attributes":{
						"POSITION":19,
						"NORMAL":20
					},
					"indices":9,
					"material":5
				}
			]
		}
	],
	"accessors":[
		{
			"bufferView":0,
			"componentType":5126,
			"count":240,
			"max":[
				1.0366532802581787,
				1.090000033378601,
				1.090000033378601
			],
			"min":[
				-1.0366532802581787,
				-1.090000033378601,
				-1.090000033378601
			],
			"type":"VEC3"
		},
		{
			"bufferView":1,
			"componentType":5126,
			"count":240,
			"type":"VEC3"
		},
		{
			"bufferView":2,
			"componentType":5126,
			"count":240,
			"type":"VEC2"
		},
		{
			"bufferView":3,
			"componentType":5126,
			"count":240,
			"type":"VEC4"
		},
		{
			"bufferView":4,
			"componentType":5123,
			"count":240,
			"type":"SCALAR"
		},
		{
			"bufferView":5,
			"componentType":5126,
			"count":24,
			"max":[
				0.46570858359336853,
				0.21330082416534424,
				0.31456300616264343
			],
			"min":[
				-0.46570858359336853,
				-0.21330082416534424,
				-0.31456300616264343
			],
			"type":"VEC3"
		},
		{
			"bufferView":6,
			"componentType":5126,
			"count":24,
			"type":"VEC3"
		},
		{
			"bufferView":7,
			"componentType":5126,
			"count":24,
			"type":"VEC2"
		},
		{
			"bufferView":8,
			"componentType":5126,
			"count":24,
			"type":"VEC4"
		},
		{
			"bufferView":9,
			"componentType":5123,
			"count":36,
			"type":"SCALAR"
		},
		{
			"bufferView":10,
			"componentType":5126,
			"count":324,
			"max":[
				1.0366532802581787,
				1.216219186782837,
				1.090000033378601
			],
			"min":[
				-1.6303657293319702,
				-1.090000033378601,
				-1.4485981464385986
			],
			"type":"VEC3"
		},
		{
			"bufferView":11,
			"componentType":5126,
			"count":324,
			"type":"VEC3"
		},
		{
			"bufferView":12,
			"componentType":5126,
			"count":324,
			"type":"VEC2"
		},
		{
			"bufferView":13,
			"componentType":5126,
			"count":324,
			"type":"VEC4"
		},
		{
			"bufferView":14,
			"componentType":5123,
			"count":366,
			"type":"SCALAR"
		},
		{
			"bufferView":15,
			"componentType":5126,
			"count":24,
			"max":[
				0.18860135972499847,
				0.31434884667396545,
				0.1602630615234375
			],
			"min":[
				-0.18860135972499847,
				-0.31434884667396545,
				-0.1602630615234375
			],
			"type":"VEC3"
		},
		{
			"bufferView":16,
			"componentType":5126,
			"count":24,
			"type":"VEC3"
		},
		{
			"bufferView":17,
			"componentType":5126,
			"count":24,
			"max":[
				0.05460584908723831,
				0.2303531914949417,
				0.25114816427230835
			],
			"min":[
				-0.05460584908723831,
				-0.2303531914949417,
				-0.25114816427230835
			],
			"type":"VEC3"
		},
		{
			"bufferView":18,
			"componentType":5126,
			"count":24,
			"type":"VEC3"
		},
		{
			"bufferView":19,
			"componentType":5126,
			"count":24,
			"max":[
				0.26809412240982056,
				1.686002492904663,
				0.1322474479675293
			],
			"min":[
				-0.26809412240982056,
				-1.686002492904663,
				-0.1322474479675293
			],
			"type":"VEC3"
		},
		{
			"bufferView":20,
			"componentType":5126,
			"count":24,
			"type":"VEC3"
		}
	],
	"bufferViews":[
		{
			"buffer":0,
			"byteLength":2880,
			"byteOffset":0,
			"target":34962
		},
		{
			"buffer":0,
			"byteLength":2880,
			"byteOffset":2880,
			"target":34962
		},
		{
			"buffer":0,
			"byteLength":1920,
			"byteOffset":5760,
			"target":34962
		},
		{
			"buffer":0,
			"byteLength":3840,
			"byteOffset":7680,
			"target":34962
		},
		{
			"buffer":0,
			"byteLength":480,
			"byteOffset":11520,
			"target":34963
		},
		{
			"buffer":0,
			"byteLength":288,
			"byteOffset":12000,
			"target":34962
		},
		{
			"buffer":0,
			"byteLength":288,
			"byteOffset":12288,
			"target":34962
		},
		{
			"buffer":0,
			"byteLength":192,
			"byteOffset":12576,
			"target":34962
		},
		{
			"buffer":0,
			"byteLength":384,
			"byteOffset":12768,
			"target":34962
		},
		{
			"buffer":0,
			"byteLength":72,
			"byteOffset":13152,
			"target":34963
		},
		{
			"buffer":0,
			"byteLength":3888,
			"byteOffset":13224,
			"target":34962
		},
		{
			"buffer":0,
			"byteLength":3888,
			"byteOffset":17112,
			"target":34962
		},
		{
			"buffer":0,
			"byteLength":2592,
			"byteOffset":21000,
			"target":34962
		},
		{
			"buffer":0,
			"byteLength":5184,
			"byteOffset":23592,
			"target":34962
		},
		{
			"buffer":0,
			"byteLength":732,
			"byteOffset":28776,
			"target":34963
		},
		{
			"buffer":0,
			"byteLength":288,
			"byteOffset":29508,
			"target":34962
		},
		{
			"buffer":0,
			"byteLength":288,
			"byteOffset":29796,
			"target":34962
		},
		{
			"buffer":0,
			"byteLength":288,
			"byteOffset":30084,
			"target":34962
		},
		{
			"buffer":0,
			"byteLength":288,
			"byteOffset":30372,
			"target":34962
		},
		{
			"buffer":0,
			"byteLength":288,
			"byteOffset":30660,
			"target":34962
		},
		{
			"buffer":0,
			"byteLength":288,
			"byteOffset":30948,
			"target":34962
		}
	],
	"buffers":[
		{
			"byteLength":31236,
			"uri":"coperedstone-076c6c1eb72fc150d4ad529e8d16cfe5.bin"
		}
	]
}
