{
	"asset":{
		"generator":"Khronos glTF Blender I/O v4.5.47",
		"version":"2.0"
	},
	"scene":0,
	"scenes":[
		{
			"name":"Scene",
			"nodes":[
				0,
				1,
				2,
				3
			]
		}
	],
	"nodes":[
		{
			"mesh":0,
			"name":"Icosphere"
		},
		{
			"mesh":1,
			"name":"Cylinder",
			"translation":[
				0,
				0.4901244640350342,
				0
			]
		},
		{
			"mesh":2,
			"name":"Cube",
			"scale":[
				0.1889359951019287,
				0.13384169340133667,
				1.0002100467681885
			],
			"translation":[
				0,
				0.8050429821014404,
				0
			]
		},
		{
			"mesh":3,
			"name":"Cube.001",
			"rotation":[
				1,
				0,
				0,
				0
			],
			"scale":[
				-0.07545709609985352,
				-1.4723654985427856,
				-0.23141098022460938
			],
			"translation":[
				0,
				2.3502447605133057,
				0
			]
		}
	],
	"materials":[
		{
			"doubleSided":true,
			"name":"Material.001",
			"pbrMetallicRoughness":{
				"baseColorFactor":[
					0.7990988492965698,
					0.06662596017122269,
					0,
					1
				],
				"roughnessFactor":0
			}
		},
		{
			"doubleSided":true,
			"name":"Material.002",
			"pbrMetallicRoughness":{
				"baseColorFactor":[
					0.05744069814682007,
					0.0007218286627903581,
					0,
					1
				],
				"metallicFactor":0
			}
		},
		{
			"doubleSided":true,
			"name":"Material.003",
			"pbrMetallicRoughness":{
				"baseColorFactor":[
					0.7990988492965698,
					0.06662596017122269,
					0,
					1
				],
				"roughnessFactor":0
			}
		},
		{
			"doubleSided":true,
			"name":"Material.004",
			"pbrMetallicRoughness":{
				"baseColorFactor":[
					0.15034888684749603,
					0.15034888684749603,
					0.15034888684749603,
					1
				],
				"roughnessFactor":0
			}
		}
	],
	"meshes":[
		{
			"name":"Icosphere",
			"primitives":[
				{
					"attributes":{
						"POSITION":0,
						"NORMAL":1,
						"TEXCOORD_0":2,
						"TANGENT":3
					},
					"indices":4,
					"material":0
				}
			]
		},
		{
			"name":"Cylinder",
			"primitives":[
				{
					"attributes":{
						"POSITION":5,
						"NORMAL":6,
						"TEXCOORD_0":7
					},
					"indices":8,
					"material":1
				}
			]
		},
		{
			"name":"Cube.001",
			"primitives":[
				{
					"attributes":{
						"POSITION":9,
						"NORMAL":10,
						"TEXCOORD_0":11,
						"TANGENT":12
					},
					"indices":13,
					"material":2
				}
			]
		},
		{
			"name":"Cube.002",
			"primitives":[
				{
					"attributes":{
						"POSITION":14,
						"NORMAL":15,
						"TEXCOORD_0":16,
						"TANGENT":17
					},
					"indices":18,
					"material":3
				}
			]
		}
	],
	"accessors":[
		{
			"bufferView":0,
			"componentType":5126,
			"count":240,
			"max":[
				0.25678569078445435,
				0.27000004053115845,
				0.27000004053115845
			],
			"min":[
				-0.25678569078445435,
				-0.27000004053115845,
				-0.27000004053115845
			],
			"type":"VEC3"
		},
		{
			"bufferView":1,
			"componentType":5126,
			"count":240,
			"type":"VEC3"
		},
		{
			"bufferView":2,
			"componentType":5126,
			"count":240,
			"type":"VEC2"
		},
		{
			"bufferView":3,
			"componentType":5126,
			"count":240,
			"type":"VEC4"
		},
		{
			"bufferView":4,
			"componentType":5123,
			"count":240,
			"type":"SCALAR"
		},
		{
			"bufferView":5,
			"componentType":5126,
			"count":192,
			"max":[
				0.12000000476837158,
				0.36000001430511475,
				0.12000000476837158
			],
			"min":[
				-0.12000000476837158,
				-0.36000001430511475,
				-0.12000000476837158
			],
			"type":"VEC3"
		},
		{
			"bufferView":6,
			"componentType":5126,
			"count":192,
			"type":"VEC3"
		},
		{
			"bufferView":7,
			"componentType":5126,
			"count":192,
			"type":"VEC2"
		},
		{
			"bufferView":8,
			"componentType":5123,
			"count":372,
			"type":"SCALAR"
		},
		{
			"bufferView":9,
			"componentType":5126,
			"count":56,
			"max":[
				1,
				1,
				0.9999998211860657
			],
			"min":[
				-1,
				-1,
				-0.9999999403953552
			],
			"type":"VEC3"
		},
		{
			"bufferView":10,
			"componentType":5126,
			"count":56,
			"type":"VEC3"
		},
		{
			"bufferView":11,
			"componentType":5126,
			"count":56,
			"type":"VEC2"
		},
		{
			"bufferView":12,
			"componentType":5126,
			"count":56,
			"type":"VEC4"
		},
		{
			"bufferView":13,
			"componentType":5123,
			"count":84,
			"type":"SCALAR"
		},
		{
			"bufferView":14,
			"componentType":5126,
			"count":62,
			"max":[
				1.005652666091919,
				1,
				1
			],
			"min":[
				-1.005652666091919,
				-1.0045037269592285,
				-1
			],
			"type":"VEC3"
		},
		{
			"bufferView":15,
			"componentType":5126,
			"count":62,
			"type":"VEC3"
		},
		{
			"bufferView":16,
			"componentType":5126,
			"count":62,
			"type":"VEC2"
		},
		{
			"bufferView":17,
			"componentType":5126,
			"count":62,
			"type":"VEC4"
		},
		{
			"bufferView":18,
			"componentType":5123,
			"count":96,
			"type":"SCALAR"
		}
	],
	"bufferViews":[
		{
			"buffer":0,
			"byteLength":2880,
			"byteOffset":0,
			"target":34962
		},
		{
			"buffer":0,
			"byteLength":2880,
			"byteOffset":2880,
			"target":34962
		},
		{
			"buffer":0,
			"byteLength":1920,
			"byteOffset":5760,
			"target":34962
		},
		{
			"buffer":0,
			"byteLength":3840,
			"byteOffset":7680,
			"target":34962
		},
		{
			"buffer":0,
			"byteLength":480,
			"byteOffset":11520,
			"target":34963
		},
		{
			"buffer":0,
			"byteLength":2304,
			"byteOffset":12000,
			"target":34962
		},
		{
			"buffer":0,
			"byteLength":2304,
			"byteOffset":14304,
			"target":34962
		},
		{
			"buffer":0,
			"byteLength":1536,
			"byteOffset":16608,
			"target":34962
		},
		{
			"buffer":0,
			"byteLength":744,
			"byteOffset":18144,
			"target":34963
		},
		{
			"buffer":0,
			"byteLength":672,
			"byteOffset":18888,
			"target":34962
		},
		{
			"buffer":0,
			"byteLength":672,
			"byteOffset":19560,
			"target":34962
		},
		{
			"buffer":0,
			"byteLength":448,
			"byteOffset":20232,
			"target":34962
		},
		{
			"buffer":0,
			"byteLength":896,
			"byteOffset":20680,
			"target":34962
		},
		{
			"buffer":0,
			"byteLength":168,
			"byteOffset":21576,
			"target":34963
		},
		{
			"buffer":0,
			"byteLength":744,
			"byteOffset":21744,
			"target":34962
		},
		{
			"buffer":0,
			"byteLength":744,
			"byteOffset":22488,
			"target":34962
		},
		{
			"buffer":0,
			"byteLength":496,
			"byteOffset":23232,
			"target":34962
		},
		{
			"buffer":0,
			"byteLength":992,
			"byteOffset":23728,
			"target":34962
		},
		{
			"buffer":0,
			"byteLength":192,
			"byteOffset":24720,
			"target":34963
		}
	],
	"buffers":[
		{
			"byteLength":24912,
			"uri":"copperclaimore-48749fa8e6cb19d771f0cd8fbaf96bed.bin"
		}
	]
}
