{
	"asset":{
		"generator":"Khronos glTF Blender I/O v4.5.47",
		"version":"2.0"
	},
	"scene":0,
	"scenes":[
		{
			"name":"Scene",
			"nodes":[
				0,
				1,
				2
			]
		}
	],
	"nodes":[
		{
			"mesh":0,
			"name":"Icosphere"
		},
		{
			"mesh":1,
			"name":"Cube",
			"rotation":[
				-0.4663866460323334,
				0,
				0,
				0.8845810294151306
			],
			"scale":[
				1,
				1.6328305006027222,
				1.5258766412734985
			],
			"translation":[
				-0.289424329996109,
				0.6787557601928711,
				0.27339601516723633
			]
		},
		{
			"mesh":2,
			"name":"Cube.001",
			"rotation":[
				-0.04093705862760544,
				0.35929998755455017,
				-0.10554204136133194,
				0.9263306856155396
			],
			"translation":[
				0.6877484321594238,
				0.5327553749084473,
				-0.15984410047531128
			]
		}
	],
	"materials":[
		{
			"doubleSided":true,
			"name":"Material.001",
			"pbrMetallicRoughness":{
				"baseColorFactor":[
					0.08848536759614944,
					0.07195217907428741,
					0.07810421288013458,
					1
				],
				"metallicFactor":0
			}
		},
		{
			"doubleSided":true,
			"name":"Material.002",
			"pbrMetallicRoughness":{
				"baseColorFactor":[
					0.25725072622299194,
					0.009849026799201965,
					0,
					1
				],
				"roughnessFactor":0
			}
		},
		{
			"doubleSided":true,
			"name":"Material.003",
			"pbrMetallicRoughness":{
				"baseColorFactor":[
					0,
					0.4565931558609009,
					0.8014525175094604,
					1
				],
				"roughnessFactor":0
			}
		}
	],
	"meshes":[
		{
			"name":"Icosphere",
			"primitives":[
				{
					"attributes":{
						"POSITION":0,
						"NORMAL":1,
						"TEXCOORD_0":2,
						"TANGENT":3
					},
					"indices":4,
					"material":0
				}
			]
		},
		{
			"name":"Cube.001",
			"primitives":[
				{
					"attributes":{
						"POSITION":5,
						"NORMAL":6,
						"TEXCOORD_0":7,
						"TANGENT":8
					},
					"indices":9,
					"material":1
				}
			]
		},
		{
			"name":"Cube.002",
			"primitives":[
				{
					"attributes":{
						"POSITION":10,
						"NORMAL":11,
						"TEXCOORD_0":12,
						"TANGENT":13
					},
					"indices":9,
					"material":2
				}
			]
		}
	],
	"accessors":[
		{
			"bufferView":0,
			"componentType":5126,
			"count":240,
			"max":[
				0.9510578513145447,
				1,
				0.9999999403953552
			],
			"min":[
				-0.9510578513145447,
				-1,
				-0.9999999403953552
			],
			"type":"VEC3"
		},
		{
			"bufferView":1,
			"componentType":5126,
			"count":240,
			"type":"VEC3"
		},
		{
			"bufferView":2,
			"componentType":5126,
			"count":240,
			"type":"VEC2"
		},
		{
			"bufferView":3,
			"componentType":5126,
			"count":240,
			"type":"VEC4"
		},
		{
			"bufferView":4,
			"componentType":5123,
			"count":240,
			"type":"SCALAR"
		},
		{
			"bufferView":5,
			"componentType":5126,
			"count":24,
			"max":[
				0.18000000715255737,
				0.18000000715255737,
				0.18000000715255737
			],
			"min":[
				-0.18000000715255737,
				-0.18000000715255737,
				-0.18000000715255737
			],
			"type":"VEC3"
		},
		{
			"bufferView":6,
			"componentType":5126,
			"count":24,
			"type":"VEC3"
		},
		{
			"bufferView":7,
			"componentType":5126,
			"count":24,
			"type":"VEC2"
		},
		{
			"bufferView":8,
			"componentType":5126,
			"count":24,
			"type":"VEC4"
		},
		{
			"bufferView":9,
			"componentType":5123,
			"count":36,
			"type":"SCALAR"
		},
		{
			"bufferView":10,
			"componentType":5126,
			"count":24,
			"max":[
				0.17999999225139618,
				0.18000000715255737,
				0.18000000715255737
			],
			"min":[
				-0.17999999225139618,
				-0.18000000715255737,
				-0.18000000715255737
			],
			"type":"VEC3"
		},
		{
			"bufferView":11,
			"componentType":5126,
			"count":24,
			"type":"VEC3"
		},
		{
			"bufferView":12,
			"componentType":5126,
			"count":24,
			"type":"VEC2"
		},
		{
			"bufferView":13,
			"componentType":5126,
			"count":24,
			"type":"VEC4"
		}
	],
	"bufferViews":[
		{
			"buffer":0,
			"byteLength":2880,
			"byteOffset":0,
			"target":34962
		},
		{
			"buffer":0,
			"byteLength":2880,
			"byteOffset":2880,
			"target":34962
		},
		{
			"buffer":0,
			"byteLength":1920,
			"byteOffset":5760,
			"target":34962
		},
		{
			"buffer":0,
			"byteLength":3840,
			"byteOffset":7680,
			"target":34962
		},
		{
			"buffer":0,
			"byteLength":480,
			"byteOffset":11520,
			"target":34963
		},
		{
			"buffer":0,
			"byteLength":288,
			"byteOffset":12000,
			"target":34962
		},
		{
			"buffer":0,
			"byteLength":288,
			"byteOffset":12288,
			"target":34962
		},
		{
			"buffer":0,
			"byteLength":192,
			"byteOffset":12576,
			"target":34962
		},
		{
			"buffer":0,
			"byteLength":384,
			"byteOffset":12768,
			"target":34962
		},
		{
			"buffer":0,
			"byteLength":72,
			"byteOffset":13152,
			"target":34963
		},
		{
			"buffer":0,
			"byteLength":288,
			"byteOffset":13224,
			"target":34962
		},
		{
			"buffer":0,
			"byteLength":288,
			"byteOffset":13512,
			"target":34962
		},
		{
			"buffer":0,
			"byteLength":192,
			"byteOffset":13800,
			"target":34962
		},
		{
			"buffer":0,
			"byteLength":384,
			"byteOffset":13992,
			"target":34962
		}
	],
	"buffers":[
		{
			"byteLength":14376,
			"uri":"coppereditem-34a775a9ee37c9dd349a8aec89cb28ad.bin"
		}
	]
}
