{
	"asset":{
		"generator":"Khronos glTF Blender I/O v4.4.56",
		"version":"2.0"
	},
	"scene":0,
	"scenes":[
		{
			"name":"Scene",
			"nodes":[
				0,
				1,
				2
			]
		}
	],
	"nodes":[
		{
			"mesh":0,
			"name":"Plane",
			"rotation":[
				0,
				0,
				-0.47729921340942383,
				0.8787408471107483
			],
			"scale":[
				0.4000000059604645,
				1,
				0.10000000149011612
			],
			"translation":[
				-0.1535964161157608,
				0,
				0
			]
		},
		{
			"mesh":1,
			"name":"Plane.001",
			"rotation":[
				-0.45956602692604065,
				0.3125724494457245,
				-0.6873958706855774,
				0.46753019094467163
			],
			"scale":[
				0.4000000059604645,
				1,
				0.10000000149011612
			],
			"translation":[
				0.06276459246873856,
				0,
				-0.10938213765621185
			]
		},
		{
			"mesh":2,
			"name":"Plane.002",
			"rotation":[
				-0.3985690474510193,
				0.6361616253852844,
				-0.22379480302333832,
				0.621576189994812
			],
			"scale":[
				0.4000000059604645,
				1,
				0.09999999403953552
			],
			"translation":[
				0,
				0,
				0.17119547724723816
			]
		}
	],
	"materials":[
		{
			"doubleSided":true,
			"name":"Material.001",
			"pbrMetallicRoughness":{
				"baseColorFactor":[
					0.4286876320838928,
					0.7991039752960205,
					0,
					1
				],
				"metallicFactor":0
			}
		},
		{
			"doubleSided":true,
			"name":"Material.003",
			"pbrMetallicRoughness":{
				"baseColorFactor":[
					0.4286876320838928,
					0.7991039752960205,
					0,
					1
				],
				"metallicFactor":0
			}
		},
		{
			"doubleSided":true,
			"name":"Material.002",
			"pbrMetallicRoughness":{
				"baseColorFactor":[
					0.4286876320838928,
					0.7991039752960205,
					0,
					1
				],
				"metallicFactor":0
			}
		}
	],
	"meshes":[
		{
			"name":"Plane",
			"primitives":[
				{
					"attributes":{
						"POSITION":0,
						"NORMAL":1,
						"TEXCOORD_0":2,
						"TANGENT":3
					},
					"indices":4,
					"material":0
				}
			]
		},
		{
			"name":"Plane.001",
			"primitives":[
				{
					"attributes":{
						"POSITION":5,
						"NORMAL":6,
						"TEXCOORD_0":7,
						"TANGENT":8
					},
					"indices":4,
					"material":1
				}
			]
		},
		{
			"name":"Plane.002",
			"primitives":[
				{
					"attributes":{
						"POSITION":9,
						"NORMAL":10,
						"TEXCOORD_0":11,
						"TANGENT":12
					},
					"indices":4,
					"material":2
				}
			]
		}
	],
	"accessors":[
		{
			"bufferView":0,
			"componentType":5126,
			"count":9,
			"max":[
				0.9166667461395264,
				0,
				0.9166667461395264
			],
			"min":[
				-0.9166667461395264,
				0,
				-0.9166667461395264
			],
			"type":"VEC3"
		},
		{
			"bufferView":1,
			"componentType":5126,
			"count":9,
			"type":"VEC3"
		},
		{
			"bufferView":2,
			"componentType":5126,
			"count":9,
			"type":"VEC2"
		},
		{
			"bufferView":3,
			"componentType":5126,
			"count":9,
			"type":"VEC4"
		},
		{
			"bufferView":4,
			"componentType":5123,
			"count":24,
			"type":"SCALAR"
		},
		{
			"bufferView":5,
			"componentType":5126,
			"count":9,
			"max":[
				0.9166667461395264,
				0,
				0.9166667461395264
			],
			"min":[
				-0.9166667461395264,
				0,
				-0.9166667461395264
			],
			"type":"VEC3"
		},
		{
			"bufferView":6,
			"componentType":5126,
			"count":9,
			"type":"VEC3"
		},
		{
			"bufferView":7,
			"componentType":5126,
			"count":9,
			"type":"VEC2"
		},
		{
			"bufferView":8,
			"componentType":5126,
			"count":9,
			"type":"VEC4"
		},
		{
			"bufferView":9,
			"componentType":5126,
			"count":9,
			"max":[
				0.9166667461395264,
				0,
				0.9166667461395264
			],
			"min":[
				-0.9166667461395264,
				0,
				-0.9166667461395264
			],
			"type":"VEC3"
		},
		{
			"bufferView":10,
			"componentType":5126,
			"count":9,
			"type":"VEC3"
		},
		{
			"bufferView":11,
			"componentType":5126,
			"count":9,
			"type":"VEC2"
		},
		{
			"bufferView":12,
			"componentType":5126,
			"count":9,
			"type":"VEC4"
		}
	],
	"bufferViews":[
		{
			"buffer":0,
			"byteLength":108,
			"byteOffset":0,
			"target":34962
		},
		{
			"buffer":0,
			"byteLength":108,
			"byteOffset":108,
			"target":34962
		},
		{
			"buffer":0,
			"byteLength":72,
			"byteOffset":216,
			"target":34962
		},
		{
			"buffer":0,
			"byteLength":144,
			"byteOffset":288,
			"target":34962
		},
		{
			"buffer":0,
			"byteLength":48,
			"byteOffset":432,
			"target":34963
		},
		{
			"buffer":0,
			"byteLength":108,
			"byteOffset":480,
			"target":34962
		},
		{
			"buffer":0,
			"byteLength":108,
			"byteOffset":588,
			"target":34962
		},
		{
			"buffer":0,
			"byteLength":72,
			"byteOffset":696,
			"target":34962
		},
		{
			"buffer":0,
			"byteLength":144,
			"byteOffset":768,
			"target":34962
		},
		{
			"buffer":0,
			"byteLength":108,
			"byteOffset":912,
			"target":34962
		},
		{
			"buffer":0,
			"byteLength":108,
			"byteOffset":1020,
			"target":34962
		},
		{
			"buffer":0,
			"byteLength":72,
			"byteOffset":1128,
			"target":34962
		},
		{
			"buffer":0,
			"byteLength":144,
			"byteOffset":1200,
			"target":34962
		}
	],
	"buffers":[
		{
			"byteLength":1344,
			"uri":"grass-109753224cc1c5aacd035e92927d6768.bin"
		}
	]
}
