{
	"asset":{
		"generator":"Khronos glTF Blender I/O v4.5.47",
		"version":"2.0"
	},
	"scene":0,
	"scenes":[
		{
			"name":"Scene",
			"nodes":[
				0,
				1,
				2,
				3,
				4,
				5,
				6
			]
		}
	],
	"nodes":[
		{
			"mesh":0,
			"name":"Plane",
			"rotation":[
				0,
				0,
				-0.47729921340942383,
				0.8787408471107483
			],
			"scale":[
				0.4000000059604645,
				1,
				0.10000000149011612
			],
			"translation":[
				-0.1535964161157608,
				0,
				0
			]
		},
		{
			"mesh":1,
			"name":"Plane.001",
			"rotation":[
				-0.45956602692604065,
				0.3125724494457245,
				-0.6873958706855774,
				0.46753019094467163
			],
			"scale":[
				0.4000000059604645,
				1,
				0.10000000149011612
			],
			"translation":[
				0.06276459246873856,
				0,
				-0.10938213765621185
			]
		},
		{
			"mesh":2,
			"name":"Plane.002",
			"rotation":[
				-0.3985690474510193,
				0.6361616253852844,
				-0.22379480302333832,
				0.621576189994812
			],
			"scale":[
				0.4000000059604645,
				1,
				0.09999999403953552
			],
			"translation":[
				0,
				0,
				0.17119547724723816
			]
		},
		{
			"mesh":3,
			"name":"Cylinder",
			"rotation":[
				-0.6748774647712708,
				0,
				0,
				0.7379298210144043
			],
			"scale":[
				0.20000000298023224,
				0.20000000298023224,
				0.20000000298023224
			],
			"translation":[
				-0.0056644827127456665,
				0.5319279432296753,
				-0.3187768757343292
			]
		},
		{
			"mesh":4,
			"name":"Icosphere",
			"rotation":[
				0.9993493556976318,
				0,
				0,
				0.03607046976685524
			],
			"scale":[
				0.10000000149011612,
				0.10000000149011612,
				0.10000000149011612
			],
			"translation":[
				-0.008282110095024109,
				0.498162180185318,
				-0.3343687355518341
			]
		},
		{
			"mesh":5,
			"name":"Cylinder.001",
			"scale":[
				0.019999999552965164,
				0.30000001192092896,
				0.019999999552965164
			],
			"translation":[
				0,
				0,
				0.004301019012928009
			]
		},
		{
			"mesh":6,
			"name":"Cylinder.002",
			"rotation":[
				-0.2699877917766571,
				0,
				0,
				0.9628638625144958
			],
			"scale":[
				0.019999999552965164,
				0.18170134723186493,
				0.017497844994068146
			],
			"translation":[
				0,
				0.45392554998397827,
				-0.08974888175725937
			]
		}
	],
	"materials":[
		{
			"doubleSided":true,
			"name":"Material.001",
			"pbrMetallicRoughness":{
				"baseColorFactor":[
					0.4286876320838928,
					0.7991039752960205,
					0,
					1
				],
				"metallicFactor":0
			}
		},
		{
			"doubleSided":true,
			"name":"Material.003",
			"pbrMetallicRoughness":{
				"baseColorFactor":[
					0.4286876320838928,
					0.7991039752960205,
					0,
					1
				],
				"metallicFactor":0
			}
		},
		{
			"doubleSided":true,
			"name":"Material.002",
			"pbrMetallicRoughness":{
				"baseColorFactor":[
					0.4286876320838928,
					0.7991039752960205,
					0,
					1
				],
				"metallicFactor":0
			}
		},
		{
			"doubleSided":true,
			"name":"Material.005",
			"pbrMetallicRoughness":{
				"baseColorFactor":[
					0.24290210008621216,
					0,
					0.8027902841567993,
					1
				],
				"metallicFactor":0,
				"roughnessFactor":0.5
			}
		},
		{
			"doubleSided":true,
			"name":"Material.004",
			"pbrMetallicRoughness":{
				"baseColorFactor":[
					0.8018419742584229,
					0.73162442445755,
					0,
					1
				],
				"metallicFactor":0,
				"roughnessFactor":0.5
			}
		},
		{
			"doubleSided":true,
			"name":"Material.006",
			"pbrMetallicRoughness":{
				"baseColorFactor":[
					0.04671945795416832,
					0.2445010244846344,
					0,
					1
				],
				"metallicFactor":0,
				"roughnessFactor":0.5
			}
		},
		{
			"doubleSided":true,
			"name":"Material.007",
			"pbrMetallicRoughness":{
				"baseColorFactor":[
					0.04671945795416832,
					0.2445010244846344,
					0,
					1
				],
				"metallicFactor":0,
				"roughnessFactor":0.5
			}
		}
	],
	"meshes":[
		{
			"name":"Mesh",
			"primitives":[
				{
					"attributes":{
						"POSITION":0,
						"NORMAL":1,
						"TEXCOORD_0":2,
						"TANGENT":3
					},
					"indices":4,
					"material":0
				}
			]
		},
		{
			"name":"Mesh",
			"primitives":[
				{
					"attributes":{
						"POSITION":5,
						"NORMAL":6,
						"TEXCOORD_0":7,
						"TANGENT":8
					},
					"indices":4,
					"material":1
				}
			]
		},
		{
			"name":"Mesh",
			"primitives":[
				{
					"attributes":{
						"POSITION":9,
						"NORMAL":10,
						"TEXCOORD_0":11,
						"TANGENT":12
					},
					"indices":4,
					"material":2
				}
			]
		},
		{
			"name":"Mesh",
			"primitives":[
				{
					"attributes":{
						"POSITION":13,
						"NORMAL":14,
						"TEXCOORD_0":15,
						"TANGENT":16
					},
					"indices":17,
					"material":3
				}
			]
		},
		{
			"name":"Icosphere",
			"primitives":[
				{
					"attributes":{
						"POSITION":18,
						"NORMAL":19,
						"TEXCOORD_0":20,
						"TANGENT":21
					},
					"indices":22,
					"material":4
				}
			]
		},
		{
			"name":"Cylinder.001",
			"primitives":[
				{
					"attributes":{
						"POSITION":23,
						"NORMAL":24,
						"TEXCOORD_0":25
					},
					"indices":26,
					"material":5
				}
			]
		},
		{
			"name":"Cylinder.002",
			"primitives":[
				{
					"attributes":{
						"POSITION":27,
						"NORMAL":28,
						"TEXCOORD_0":29
					},
					"indices":26,
					"material":6
				}
			]
		}
	],
	"accessors":[
		{
			"bufferView":0,
			"componentType":5126,
			"count":9,
			"max":[
				0.9166667461395264,
				0,
				0.9166667461395264
			],
			"min":[
				-0.9166667461395264,
				0,
				-0.9166667461395264
			],
			"type":"VEC3"
		},
		{
			"bufferView":1,
			"componentType":5126,
			"count":9,
			"type":"VEC3"
		},
		{
			"bufferView":2,
			"componentType":5126,
			"count":9,
			"type":"VEC2"
		},
		{
			"bufferView":3,
			"componentType":5126,
			"count":9,
			"type":"VEC4"
		},
		{
			"bufferView":4,
			"componentType":5123,
			"count":24,
			"type":"SCALAR"
		},
		{
			"bufferView":5,
			"componentType":5126,
			"count":9,
			"max":[
				0.9166667461395264,
				0,
				0.9166667461395264
			],
			"min":[
				-0.9166667461395264,
				0,
				-0.9166667461395264
			],
			"type":"VEC3"
		},
		{
			"bufferView":6,
			"componentType":5126,
			"count":9,
			"type":"VEC3"
		},
		{
			"bufferView":7,
			"componentType":5126,
			"count":9,
			"type":"VEC2"
		},
		{
			"bufferView":8,
			"componentType":5126,
			"count":9,
			"type":"VEC4"
		},
		{
			"bufferView":9,
			"componentType":5126,
			"count":9,
			"max":[
				0.9166667461395264,
				0,
				0.9166667461395264
			],
			"min":[
				-0.9166667461395264,
				0,
				-0.9166667461395264
			],
			"type":"VEC3"
		},
		{
			"bufferView":10,
			"componentType":5126,
			"count":9,
			"type":"VEC3"
		},
		{
			"bufferView":11,
			"componentType":5126,
			"count":9,
			"type":"VEC2"
		},
		{
			"bufferView":12,
			"componentType":5126,
			"count":9,
			"type":"VEC4"
		},
		{
			"bufferView":13,
			"componentType":5126,
			"count":2304,
			"max":[
				0.9935951232910156,
				1,
				0.9935951232910156
			],
			"min":[
				-0.9935951232910156,
				-0.9609604477882385,
				-0.9935951232910156
			],
			"type":"VEC3"
		},
		{
			"bufferView":14,
			"componentType":5126,
			"count":2304,
			"type":"VEC3"
		},
		{
			"bufferView":15,
			"componentType":5126,
			"count":2304,
			"type":"VEC2"
		},
		{
			"bufferView":16,
			"componentType":5126,
			"count":2304,
			"type":"VEC4"
		},
		{
			"bufferView":17,
			"componentType":5123,
			"count":3456,
			"type":"SCALAR"
		},
		{
			"bufferView":18,
			"componentType":5126,
			"count":240,
			"max":[
				0.9510578513145447,
				1,
				0.9999999403953552
			],
			"min":[
				-0.9510578513145447,
				-1,
				-0.9999999403953552
			],
			"type":"VEC3"
		},
		{
			"bufferView":19,
			"componentType":5126,
			"count":240,
			"type":"VEC3"
		},
		{
			"bufferView":20,
			"componentType":5126,
			"count":240,
			"type":"VEC2"
		},
		{
			"bufferView":21,
			"componentType":5126,
			"count":240,
			"type":"VEC4"
		},
		{
			"bufferView":22,
			"componentType":5123,
			"count":240,
			"type":"SCALAR"
		},
		{
			"bufferView":23,
			"componentType":5126,
			"count":192,
			"max":[
				1,
				1,
				1
			],
			"min":[
				-1,
				-1,
				-1
			],
			"type":"VEC3"
		},
		{
			"bufferView":24,
			"componentType":5126,
			"count":192,
			"type":"VEC3"
		},
		{
			"bufferView":25,
			"componentType":5126,
			"count":192,
			"type":"VEC2"
		},
		{
			"bufferView":26,
			"componentType":5123,
			"count":372,
			"type":"SCALAR"
		},
		{
			"bufferView":27,
			"componentType":5126,
			"count":192,
			"max":[
				1,
				1,
				1
			],
			"min":[
				-1,
				-1,
				-1
			],
			"type":"VEC3"
		},
		{
			"bufferView":28,
			"componentType":5126,
			"count":192,
			"type":"VEC3"
		},
		{
			"bufferView":29,
			"componentType":5126,
			"count":192,
			"type":"VEC2"
		}
	],
	"bufferViews":[
		{
			"buffer":0,
			"byteLength":108,
			"byteOffset":0,
			"target":34962
		},
		{
			"buffer":0,
			"byteLength":108,
			"byteOffset":108,
			"target":34962
		},
		{
			"buffer":0,
			"byteLength":72,
			"byteOffset":216,
			"target":34962
		},
		{
			"buffer":0,
			"byteLength":144,
			"byteOffset":288,
			"target":34962
		},
		{
			"buffer":0,
			"byteLength":48,
			"byteOffset":432,
			"target":34963
		},
		{
			"buffer":0,
			"byteLength":108,
			"byteOffset":480,
			"target":34962
		},
		{
			"buffer":0,
			"byteLength":108,
			"byteOffset":588,
			"target":34962
		},
		{
			"buffer":0,
			"byteLength":72,
			"byteOffset":696,
			"target":34962
		},
		{
			"buffer":0,
			"byteLength":144,
			"byteOffset":768,
			"target":34962
		},
		{
			"buffer":0,
			"byteLength":108,
			"byteOffset":912,
			"target":34962
		},
		{
			"buffer":0,
			"byteLength":108,
			"byteOffset":1020,
			"target":34962
		},
		{
			"buffer":0,
			"byteLength":72,
			"byteOffset":1128,
			"target":34962
		},
		{
			"buffer":0,
			"byteLength":144,
			"byteOffset":1200,
			"target":34962
		},
		{
			"buffer":0,
			"byteLength":27648,
			"byteOffset":1344,
			"target":34962
		},
		{
			"buffer":0,
			"byteLength":27648,
			"byteOffset":28992,
			"target":34962
		},
		{
			"buffer":0,
			"byteLength":18432,
			"byteOffset":56640,
			"target":34962
		},
		{
			"buffer":0,
			"byteLength":36864,
			"byteOffset":75072,
			"target":34962
		},
		{
			"buffer":0,
			"byteLength":6912,
			"byteOffset":111936,
			"target":34963
		},
		{
			"buffer":0,
			"byteLength":2880,
			"byteOffset":118848,
			"target":34962
		},
		{
			"buffer":0,
			"byteLength":2880,
			"byteOffset":121728,
			"target":34962
		},
		{
			"buffer":0,
			"byteLength":1920,
			"byteOffset":124608,
			"target":34962
		},
		{
			"buffer":0,
			"byteLength":3840,
			"byteOffset":126528,
			"target":34962
		},
		{
			"buffer":0,
			"byteLength":480,
			"byteOffset":130368,
			"target":34963
		},
		{
			"buffer":0,
			"byteLength":2304,
			"byteOffset":130848,
			"target":34962
		},
		{
			"buffer":0,
			"byteLength":2304,
			"byteOffset":133152,
			"target":34962
		},
		{
			"buffer":0,
			"byteLength":1536,
			"byteOffset":135456,
			"target":34962
		},
		{
			"buffer":0,
			"byteLength":744,
			"byteOffset":136992,
			"target":34963
		},
		{
			"buffer":0,
			"byteLength":2304,
			"byteOffset":137736,
			"target":34962
		},
		{
			"buffer":0,
			"byteLength":2304,
			"byteOffset":140040,
			"target":34962
		},
		{
			"buffer":0,
			"byteLength":1536,
			"byteOffset":142344,
			"target":34962
		}
	],
	"buffers":[
		{
			"byteLength":143880,
			"uri":"plant_DOS-1cf9923e07069668628779af82a20344.bin"
		}
	]
}
