{
	"asset":{
		"generator":"Khronos glTF Blender I/O v4.5.47",
		"version":"2.0"
	},
	"scene":0,
	"scenes":[
		{
			"name":"Scene",
			"nodes":[
				0,
				1,
				2,
				3
			]
		}
	],
	"nodes":[
		{
			"mesh":0,
			"name":"Cylinder",
			"rotation":[
				0,
				-0.2924913763999939,
				0,
				0.9562681913375854
			],
			"scale":[
				0.10000000149011612,
				1,
				0.10000000149011612
			],
			"translation":[
				0.17819561064243317,
				0.034481264650821686,
				0.29214590787887573
			]
		},
		{
			"mesh":1,
			"name":"Cylinder.001",
			"scale":[
				0.10000000149011612,
				1,
				0.10000000149011612
			],
			"translation":[
				0,
				1.5932508707046509,
				-0.15392012894153595
			]
		},
		{
			"mesh":2,
			"name":"Cylinder.002",
			"rotation":[
				0,
				0.2807464301586151,
				0,
				0.9597820043563843
			],
			"scale":[
				0.10000000149011612,
				1,
				0.10000000149011612
			]
		},
		{
			"mesh":3,
			"name":"Plane",
			"rotation":[
				0.0089727733284235,
				0.2775487005710602,
				-0.031040925532579422,
				0.9601680636405945
			],
			"scale":[
				0.40000003576278687,
				1,
				0.18000000715255737
			],
			"translation":[
				1.073588490486145,
				0.865868330001831,
				0.5335426926612854
			]
		}
	],
	"animations":[
		{
			"channels":[
				{
					"sampler":0,
					"target":{
						"node":3,
						"path":"rotation"
					}
				}
			],
			"name":"PlaneAction",
			"samplers":[
				{
					"input":15,
					"interpolation":"LINEAR",
					"output":16
				}
			]
		}
	],
	"materials":[
		{
			"doubleSided":true,
			"name":"Material.001",
			"pbrMetallicRoughness":{
				"baseColorFactor":[
					0.057490020990371704,
					0,
					0.0005345714744180441,
					1
				],
				"metallicFactor":0,
				"roughnessFactor":0.5
			}
		},
		{
			"doubleSided":true,
			"name":"Material.002",
			"pbrMetallicRoughness":{
				"baseColorFactor":[
					0.057490020990371704,
					0,
					0.0005345714744180441,
					1
				],
				"metallicFactor":0,
				"roughnessFactor":0.5
			}
		},
		{
			"doubleSided":true,
			"name":"Material.003",
			"pbrMetallicRoughness":{
				"baseColorFactor":[
					0.057490020990371704,
					0,
					0.0005345714744180441,
					1
				],
				"metallicFactor":0,
				"roughnessFactor":0.5
			}
		},
		{
			"doubleSided":true,
			"name":"Material.004",
			"pbrMetallicRoughness":{
				"baseColorFactor":[
					0.018113180994987488,
					0.8000785112380981,
					0,
					1
				],
				"metallicFactor":0
			}
		}
	],
	"meshes":[
		{
			"name":"Cylinder",
			"primitives":[
				{
					"attributes":{
						"POSITION":0,
						"NORMAL":1,
						"TEXCOORD_0":2
					},
					"indices":3,
					"material":0
				}
			]
		},
		{
			"name":"Cylinder.001",
			"primitives":[
				{
					"attributes":{
						"POSITION":4,
						"NORMAL":5,
						"TEXCOORD_0":6
					},
					"indices":3,
					"material":1
				}
			]
		},
		{
			"name":"Cylinder.002",
			"primitives":[
				{
					"attributes":{
						"POSITION":7,
						"NORMAL":8,
						"TEXCOORD_0":9
					},
					"indices":3,
					"material":2
				}
			]
		},
		{
			"name":"Mesh",
			"primitives":[
				{
					"attributes":{
						"POSITION":10,
						"NORMAL":11,
						"TEXCOORD_0":12,
						"TANGENT":13
					},
					"indices":14,
					"material":3
				}
			]
		}
	],
	"accessors":[
		{
			"bufferView":0,
			"componentType":5126,
			"count":192,
			"max":[
				18.017202377319336,
				0.952192485332489,
				2.252537965774536
			],
			"min":[
				-2.045307159423828,
				0.6838293075561523,
				-2.8277008533477783
			],
			"type":"VEC3"
		},
		{
			"bufferView":1,
			"componentType":5126,
			"count":192,
			"type":"VEC3"
		},
		{
			"bufferView":2,
			"componentType":5126,
			"count":192,
			"type":"VEC2"
		},
		{
			"bufferView":3,
			"componentType":5123,
			"count":372,
			"type":"SCALAR"
		},
		{
			"bufferView":4,
			"componentType":5126,
			"count":192,
			"max":[
				2.0453085899353027,
				-0.6838288903236389,
				2.827704429626465
			],
			"min":[
				-18.017200469970703,
				-0.9521921277046204,
				-2.252532958984375
			],
			"type":"VEC3"
		},
		{
			"bufferView":5,
			"componentType":5126,
			"count":192,
			"type":"VEC3"
		},
		{
			"bufferView":6,
			"componentType":5126,
			"count":192,
			"type":"VEC2"
		},
		{
			"bufferView":7,
			"componentType":5126,
			"count":192,
			"max":[
				18.017202377319336,
				0.952192485332489,
				2.252537965774536
			],
			"min":[
				-2.045307159423828,
				0.6838293075561523,
				-2.8277008533477783
			],
			"type":"VEC3"
		},
		{
			"bufferView":8,
			"componentType":5126,
			"count":192,
			"type":"VEC3"
		},
		{
			"bufferView":9,
			"componentType":5126,
			"count":192,
			"type":"VEC2"
		},
		{
			"bufferView":10,
			"componentType":5126,
			"count":9,
			"max":[
				0.9166667461395264,
				0,
				0.9166667461395264
			],
			"min":[
				-0.9166667461395264,
				0,
				-0.9166667461395264
			],
			"type":"VEC3"
		},
		{
			"bufferView":11,
			"componentType":5126,
			"count":9,
			"type":"VEC3"
		},
		{
			"bufferView":12,
			"componentType":5126,
			"count":9,
			"type":"VEC2"
		},
		{
			"bufferView":13,
			"componentType":5126,
			"count":9,
			"type":"VEC4"
		},
		{
			"bufferView":14,
			"componentType":5123,
			"count":24,
			"type":"SCALAR"
		},
		{
			"bufferView":15,
			"componentType":5126,
			"count":17,
			"max":[
				0.7916666666666666
			],
			"min":[
				0.125
			],
			"type":"SCALAR"
		},
		{
			"bufferView":16,
			"componentType":5126,
			"count":17,
			"type":"VEC4"
		}
	],
	"bufferViews":[
		{
			"buffer":0,
			"byteLength":2304,
			"byteOffset":0,
			"target":34962
		},
		{
			"buffer":0,
			"byteLength":2304,
			"byteOffset":2304,
			"target":34962
		},
		{
			"buffer":0,
			"byteLength":1536,
			"byteOffset":4608,
			"target":34962
		},
		{
			"buffer":0,
			"byteLength":744,
			"byteOffset":6144,
			"target":34963
		},
		{
			"buffer":0,
			"byteLength":2304,
			"byteOffset":6888,
			"target":34962
		},
		{
			"buffer":0,
			"byteLength":2304,
			"byteOffset":9192,
			"target":34962
		},
		{
			"buffer":0,
			"byteLength":1536,
			"byteOffset":11496,
			"target":34962
		},
		{
			"buffer":0,
			"byteLength":2304,
			"byteOffset":13032,
			"target":34962
		},
		{
			"buffer":0,
			"byteLength":2304,
			"byteOffset":15336,
			"target":34962
		},
		{
			"buffer":0,
			"byteLength":1536,
			"byteOffset":17640,
			"target":34962
		},
		{
			"buffer":0,
			"byteLength":108,
			"byteOffset":19176,
			"target":34962
		},
		{
			"buffer":0,
			"byteLength":108,
			"byteOffset":19284,
			"target":34962
		},
		{
			"buffer":0,
			"byteLength":72,
			"byteOffset":19392,
			"target":34962
		},
		{
			"buffer":0,
			"byteLength":144,
			"byteOffset":19464,
			"target":34962
		},
		{
			"buffer":0,
			"byteLength":48,
			"byteOffset":19608,
			"target":34963
		},
		{
			"buffer":0,
			"byteLength":68,
			"byteOffset":19656
		},
		{
			"buffer":0,
			"byteLength":272,
			"byteOffset":19724
		}
	],
	"buffers":[
		{
			"byteLength":19996,
			"uri":"sdtick-0897d8dc43c3be8d8f4f078e04a62dc1.bin"
		}
	]
}
