{
	"asset":{
		"generator":"Khronos glTF Blender I/O v4.5.47",
		"version":"2.0"
	},
	"scene":0,
	"scenes":[
		{
			"name":"Scene",
			"nodes":[
				0
			]
		}
	],
	"nodes":[
		{
			"mesh":0,
			"name":"Icosphere.018",
			"rotation":[
				-0.6427006721496582,
				0.29484879970550537,
				0.5059010982513428,
				0.4940284788608551
			],
			"translation":[
				0.3942672610282898,
				0.9598385691642761,
				-0.09575361013412476
			]
		}
	],
	"materials":[
		{
			"doubleSided":true,
			"name":"Material.003",
			"pbrMetallicRoughness":{
				"baseColorFactor":[
					0.07903497666120529,
					0.07463659346103668,
					0.07273302227258682,
					1
				],
				"metallicFactor":0,
				"roughnessFactor":0.35826772451400757
			}
		}
	],
	"meshes":[
		{
			"name":"Icosphere.019",
			"primitives":[
				{
					"attributes":{
						"POSITION":0,
						"NORMAL":1,
						"TEXCOORD_0":2,
						"TANGENT":3
					},
					"indices":4,
					"material":0
				}
			]
		}
	],
	"accessors":[
		{
			"bufferView":0,
			"componentType":5126,
			"count":4560,
			"max":[
				1.5334405899047852,
				1.8529716730117798,
				1.3411500453948975
			],
			"min":[
				-1.0909290313720703,
				-0.639724612236023,
				-0.9230438470840454
			],
			"type":"VEC3"
		},
		{
			"bufferView":1,
			"componentType":5126,
			"count":4560,
			"type":"VEC3"
		},
		{
			"bufferView":2,
			"componentType":5126,
			"count":4560,
			"type":"VEC2"
		},
		{
			"bufferView":3,
			"componentType":5126,
			"count":4560,
			"type":"VEC4"
		},
		{
			"bufferView":4,
			"componentType":5123,
			"count":4560,
			"type":"SCALAR"
		}
	],
	"bufferViews":[
		{
			"buffer":0,
			"byteLength":54720,
			"byteOffset":0,
			"target":34962
		},
		{
			"buffer":0,
			"byteLength":54720,
			"byteOffset":54720,
			"target":34962
		},
		{
			"buffer":0,
			"byteLength":36480,
			"byteOffset":109440,
			"target":34962
		},
		{
			"buffer":0,
			"byteLength":72960,
			"byteOffset":145920,
			"target":34962
		},
		{
			"buffer":0,
			"byteLength":9120,
			"byteOffset":218880,
			"target":34963
		}
	],
	"buffers":[
		{
			"byteLength":228000,
			"uri":"stonemt-031e691f1027c77dcd1ec611c393a222.bin"
		}
	]
}
