{
	"asset":{
		"generator":"Khronos glTF Blender I/O v4.5.47",
		"version":"2.0"
	},
	"extensionsUsed":[
		"KHR_lights_punctual"
	],
	"extensionsRequired":[
		"KHR_lights_punctual"
	],
	"extensions":{
		"KHR_lights_punctual":{
			"lights":[
				{
					"color":[
						1,
						1,
						1
					],
					"intensity":54351.41306588226,
					"type":"point",
					"name":"Light"
				}
			]
		}
	},
	"scene":0,
	"scenes":[
		{
			"name":"Scene",
			"nodes":[
				0,
				1,
				2
			]
		}
	],
	"nodes":[
		{
			"extensions":{
				"KHR_lights_punctual":{
					"light":0
				}
			},
			"name":"Light",
			"rotation":[
				-0.28416627645492554,
				0.7269423007965088,
				0.34203392267227173,
				0.5232754945755005
			],
			"translation":[
				4.076245307922363,
				5.903861999511719,
				-1.0054539442062378
			]
		},
		{
			"mesh":0,
			"name":"Cube",
			"scale":[
				0.5202915072441101,
				2.9570682048797607,
				0.5202915072441101
			],
			"translation":[
				0,
				2.7939836978912354,
				0
			]
		},
		{
			"mesh":1,
			"name":"Cube.001",
			"scale":[
				1.2128223180770874,
				1.2128223180770874,
				1.2128223180770874
			],
			"translation":[
				0,
				4.006007194519043,
				0
			]
		}
	],
	"materials":[
		{
			"doubleSided":true,
			"name":"Material.002",
			"pbrMetallicRoughness":{
				"baseColorFactor":[
					0.023114344105124474,
					0,
					0.0007026531384326518,
					1
				],
				"metallicFactor":0,
				"roughnessFactor":0.686274528503418
			}
		},
		{
			"doubleSided":true,
			"name":"Material.001",
			"pbrMetallicRoughness":{
				"baseColorFactor":[
					0.035730183124542236,
					0.11911102384328842,
					0,
					1
				],
				"metallicFactor":0
			}
		}
	],
	"meshes":[
		{
			"name":"Mesh",
			"primitives":[
				{
					"attributes":{
						"POSITION":0,
						"NORMAL":1,
						"TEXCOORD_0":2,
						"TANGENT":3
					},
					"indices":4,
					"material":0
				}
			]
		},
		{
			"name":"Mesh",
			"primitives":[
				{
					"attributes":{
						"POSITION":5,
						"NORMAL":6,
						"TEXCOORD_0":7,
						"TANGENT":8
					},
					"indices":9,
					"material":1
				}
			]
		}
	],
	"accessors":[
		{
			"bufferView":0,
			"componentType":5126,
			"count":1824,
			"max":[
				1.5047290325164795,
				0.1104545146226883,
				1.6395808458328247
			],
			"min":[
				-1.5015718936920166,
				-0.9999877214431763,
				-1.8770606517791748
			],
			"type":"VEC3"
		},
		{
			"bufferView":1,
			"componentType":5126,
			"count":1824,
			"type":"VEC3"
		},
		{
			"bufferView":2,
			"componentType":5126,
			"count":1824,
			"type":"VEC2"
		},
		{
			"bufferView":3,
			"componentType":5126,
			"count":1824,
			"type":"VEC4"
		},
		{
			"bufferView":4,
			"componentType":5123,
			"count":2736,
			"type":"SCALAR"
		},
		{
			"bufferView":5,
			"componentType":5126,
			"count":6829,
			"max":[
				1.1934620141983032,
				2.9951179027557373,
				1.4216296672821045
			],
			"min":[
				-1.2644771337509155,
				-1.0520663261413574,
				-1.164584994316101
			],
			"type":"VEC3"
		},
		{
			"bufferView":6,
			"componentType":5126,
			"count":6829,
			"type":"VEC3"
		},
		{
			"bufferView":7,
			"componentType":5126,
			"count":6829,
			"type":"VEC2"
		},
		{
			"bufferView":8,
			"componentType":5126,
			"count":6829,
			"type":"VEC4"
		},
		{
			"bufferView":9,
			"componentType":5123,
			"count":10560,
			"type":"SCALAR"
		}
	],
	"bufferViews":[
		{
			"buffer":0,
			"byteLength":21888,
			"byteOffset":0,
			"target":34962
		},
		{
			"buffer":0,
			"byteLength":21888,
			"byteOffset":21888,
			"target":34962
		},
		{
			"buffer":0,
			"byteLength":14592,
			"byteOffset":43776,
			"target":34962
		},
		{
			"buffer":0,
			"byteLength":29184,
			"byteOffset":58368,
			"target":34962
		},
		{
			"buffer":0,
			"byteLength":5472,
			"byteOffset":87552,
			"target":34963
		},
		{
			"buffer":0,
			"byteLength":81948,
			"byteOffset":93024,
			"target":34962
		},
		{
			"buffer":0,
			"byteLength":81948,
			"byteOffset":174972,
			"target":34962
		},
		{
			"buffer":0,
			"byteLength":54632,
			"byteOffset":256920,
			"target":34962
		},
		{
			"buffer":0,
			"byteLength":109264,
			"byteOffset":311552,
			"target":34962
		},
		{
			"buffer":0,
			"byteLength":21120,
			"byteOffset":420816,
			"target":34963
		}
	],
	"buffers":[
		{
			"byteLength":441936,
			"uri":"TITTTRES-54499a918943cade19a2a6d1f6fbf249.bin"
		}
	]
}
