{
	"asset":{
		"generator":"Khronos glTF Blender I/O v4.5.47",
		"version":"2.0"
	},
	"scene":0,
	"scenes":[
		{
			"name":"Scene",
			"nodes":[
				0
			]
		}
	],
	"nodes":[
		{
			"mesh":0,
			"name":"Cube",
			"scale":[
				0.5790174007415771,
				5.564187049865723,
				0.5790174007415771
			],
			"translation":[
				0,
				4.70151424407959,
				0
			]
		}
	],
	"materials":[
		{
			"doubleSided":true,
			"name":"Material.001",
			"pbrMetallicRoughness":{
				"metallicFactor":0,
				"roughnessFactor":0.5
			}
		}
	],
	"meshes":[
		{
			"name":"Mesh",
			"primitives":[
				{
					"attributes":{
						"POSITION":0,
						"NORMAL":1,
						"TEXCOORD_0":2,
						"TANGENT":3
					},
					"indices":4,
					"material":0
				}
			]
		}
	],
	"accessors":[
		{
			"bufferView":0,
			"componentType":5126,
			"count":2780,
			"max":[
				9.804523468017578,
				1.9918326139450073,
				10.602858543395996
			],
			"min":[
				-10.704886436462402,
				-1.2068650722503662,
				-8.369290351867676
			],
			"type":"VEC3"
		},
		{
			"bufferView":1,
			"componentType":5126,
			"count":2780,
			"type":"VEC3"
		},
		{
			"bufferView":2,
			"componentType":5126,
			"count":2780,
			"type":"VEC2"
		},
		{
			"bufferView":3,
			"componentType":5126,
			"count":2780,
			"type":"VEC4"
		},
		{
			"bufferView":4,
			"componentType":5123,
			"count":4224,
			"type":"SCALAR"
		}
	],
	"bufferViews":[
		{
			"buffer":0,
			"byteLength":33360,
			"byteOffset":0,
			"target":34962
		},
		{
			"buffer":0,
			"byteLength":33360,
			"byteOffset":33360,
			"target":34962
		},
		{
			"buffer":0,
			"byteLength":22240,
			"byteOffset":66720,
			"target":34962
		},
		{
			"buffer":0,
			"byteLength":44480,
			"byteOffset":88960,
			"target":34962
		},
		{
			"buffer":0,
			"byteLength":8448,
			"byteOffset":133440,
			"target":34963
		}
	],
	"buffers":[
		{
			"byteLength":141888,
			"uri":"tree5-0c04145743cecea37636408b4d2b5ab8.bin"
		}
	]
}
