{
	"asset":{
		"generator":"Khronos glTF Blender I/O v4.5.47",
		"version":"2.0"
	},
	"scene":0,
	"scenes":[
		{
			"name":"Scene",
			"nodes":[
				0,
				1,
				2
			]
		}
	],
	"nodes":[
		{
			"mesh":0,
			"name":"Cube",
			"rotation":[
				0,
				1,
				0,
				0
			],
			"scale":[
				-1,
				-1.3265552520751953,
				-1
			]
		},
		{
			"mesh":1,
			"name":"Cube.001",
			"scale":[
				1.6083930730819702,
				0.808194637298584,
				1.3381847143173218
			],
			"translation":[
				0,
				3.415264368057251,
				0
			]
		},
		{
			"mesh":2,
			"name":"Cube.002",
			"rotation":[
				0,
				0.34257543087005615,
				0,
				0.9394904375076294
			],
			"scale":[
				0.35706502199172974,
				0.10366380959749222,
				0.6224007606506348
			],
			"translation":[
				-0.8755587339401245,
				1.5843238830566406,
				0
			]
		}
	],
	"materials":[
		{
			"doubleSided":true,
			"name":"Material.003",
			"pbrMetallicRoughness":{
				"baseColorFactor":[
					0.10306292027235031,
					0.06065424159169197,
					0.043004296720027924,
					1
				],
				"metallicFactor":0
			}
		},
		{
			"doubleSided":true,
			"name":"Material.001",
			"pbrMetallicRoughness":{
				"baseColorFactor":[
					0.004504310432821512,
					0.19687940180301666,
					0,
					1
				],
				"metallicFactor":0
			}
		},
		{
			"doubleSided":true,
			"name":"Material.002",
			"pbrMetallicRoughness":{
				"baseColorFactor":[
					0.006511743180453777,
					0.366253137588501,
					0,
					1
				],
				"metallicFactor":0
			}
		}
	],
	"meshes":[
		{
			"name":"Mesh",
			"primitives":[
				{
					"attributes":{
						"POSITION":0,
						"NORMAL":1,
						"TEXCOORD_0":2,
						"TANGENT":3
					},
					"indices":4,
					"material":0
				}
			]
		},
		{
			"name":"Mesh",
			"primitives":[
				{
					"attributes":{
						"POSITION":5,
						"NORMAL":6,
						"TEXCOORD_0":7,
						"TANGENT":8
					},
					"indices":9,
					"material":1
				}
			]
		},
		{
			"name":"Mesh",
			"primitives":[
				{
					"attributes":{
						"POSITION":10,
						"NORMAL":11,
						"TEXCOORD_0":12,
						"TANGENT":13
					},
					"indices":14,
					"material":2
				}
			]
		}
	],
	"accessors":[
		{
			"bufferView":0,
			"componentType":5126,
			"count":734,
			"max":[
				1.0678436756134033,
				0.3878546357154846,
				0.41902896761894226
			],
			"min":[
				-0.9801422357559204,
				-1.9856699705123901,
				-0.2592051327228546
			],
			"type":"VEC3"
		},
		{
			"bufferView":1,
			"componentType":5126,
			"count":734,
			"type":"VEC3"
		},
		{
			"bufferView":2,
			"componentType":5126,
			"count":734,
			"type":"VEC2"
		},
		{
			"bufferView":3,
			"componentType":5126,
			"count":734,
			"type":"VEC4"
		},
		{
			"bufferView":4,
			"componentType":5123,
			"count":1104,
			"type":"SCALAR"
		},
		{
			"bufferView":5,
			"componentType":5126,
			"count":1399,
			"max":[
				0.9262762069702148,
				1.0000001192092896,
				0.9289663434028625
			],
			"min":[
				-0.983250617980957,
				-1.0000001192092896,
				-0.9699284434318542
			],
			"type":"VEC3"
		},
		{
			"bufferView":6,
			"componentType":5126,
			"count":1399,
			"type":"VEC3"
		},
		{
			"bufferView":7,
			"componentType":5126,
			"count":1399,
			"type":"VEC2"
		},
		{
			"bufferView":8,
			"componentType":5126,
			"count":1399,
			"type":"VEC4"
		},
		{
			"bufferView":9,
			"componentType":5123,
			"count":2304,
			"type":"SCALAR"
		},
		{
			"bufferView":10,
			"componentType":5126,
			"count":632,
			"max":[
				0.7599283456802368,
				1,
				0.9716981053352356
			],
			"min":[
				-0.7434266209602356,
				-1,
				-0.967913031578064
			],
			"type":"VEC3"
		},
		{
			"bufferView":11,
			"componentType":5126,
			"count":632,
			"type":"VEC3"
		},
		{
			"bufferView":12,
			"componentType":5126,
			"count":632,
			"type":"VEC2"
		},
		{
			"bufferView":13,
			"componentType":5126,
			"count":632,
			"type":"VEC4"
		},
		{
			"bufferView":14,
			"componentType":5123,
			"count":960,
			"type":"SCALAR"
		}
	],
	"bufferViews":[
		{
			"buffer":0,
			"byteLength":8808,
			"byteOffset":0,
			"target":34962
		},
		{
			"buffer":0,
			"byteLength":8808,
			"byteOffset":8808,
			"target":34962
		},
		{
			"buffer":0,
			"byteLength":5872,
			"byteOffset":17616,
			"target":34962
		},
		{
			"buffer":0,
			"byteLength":11744,
			"byteOffset":23488,
			"target":34962
		},
		{
			"buffer":0,
			"byteLength":2208,
			"byteOffset":35232,
			"target":34963
		},
		{
			"buffer":0,
			"byteLength":16788,
			"byteOffset":37440,
			"target":34962
		},
		{
			"buffer":0,
			"byteLength":16788,
			"byteOffset":54228,
			"target":34962
		},
		{
			"buffer":0,
			"byteLength":11192,
			"byteOffset":71016,
			"target":34962
		},
		{
			"buffer":0,
			"byteLength":22384,
			"byteOffset":82208,
			"target":34962
		},
		{
			"buffer":0,
			"byteLength":4608,
			"byteOffset":104592,
			"target":34963
		},
		{
			"buffer":0,
			"byteLength":7584,
			"byteOffset":109200,
			"target":34962
		},
		{
			"buffer":0,
			"byteLength":7584,
			"byteOffset":116784,
			"target":34962
		},
		{
			"buffer":0,
			"byteLength":5056,
			"byteOffset":124368,
			"target":34962
		},
		{
			"buffer":0,
			"byteLength":10112,
			"byteOffset":129424,
			"target":34962
		},
		{
			"buffer":0,
			"byteLength":1920,
			"byteOffset":139536,
			"target":34963
		}
	],
	"buffers":[
		{
			"byteLength":141456,
			"uri":"tree2mediva-be5f4d37ca8b9cd5842a3905476d02dd.bin"
		}
	]
}
