{
	"asset":{
		"generator":"Khronos glTF Blender I/O v4.5.47",
		"version":"2.0"
	},
	"scene":0,
	"scenes":[
		{
			"name":"Scene",
			"nodes":[
				0
			]
		}
	],
	"nodes":[
		{
			"mesh":0,
			"name":"Cube",
			"scale":[
				1,
				4.807957649230957,
				1
			],
			"translation":[
				0,
				4.035730838775635,
				0
			]
		}
	],
	"materials":[
		{
			"doubleSided":true,
			"name":"Material",
			"pbrMetallicRoughness":{
				"metallicFactor":0,
				"roughnessFactor":0.5
			}
		}
	],
	"meshes":[
		{
			"name":"Mesh",
			"primitives":[
				{
					"attributes":{
						"POSITION":0,
						"NORMAL":1,
						"TEXCOORD_0":2,
						"TANGENT":3
					},
					"indices":4,
					"material":0
				}
			]
		}
	],
	"accessors":[
		{
			"bufferView":0,
			"componentType":5126,
			"count":3003,
			"max":[
				2.516237258911133,
				3.0788254737854004,
				2.671210527420044
			],
			"min":[
				-3.730329990386963,
				-1.0032384395599365,
				-2.7999236583709717
			],
			"type":"VEC3"
		},
		{
			"bufferView":1,
			"componentType":5126,
			"count":3003,
			"type":"VEC3"
		},
		{
			"bufferView":2,
			"componentType":5126,
			"count":3003,
			"type":"VEC2"
		},
		{
			"bufferView":3,
			"componentType":5126,
			"count":3003,
			"type":"VEC4"
		},
		{
			"bufferView":4,
			"componentType":5123,
			"count":4512,
			"type":"SCALAR"
		}
	],
	"bufferViews":[
		{
			"buffer":0,
			"byteLength":36036,
			"byteOffset":0,
			"target":34962
		},
		{
			"buffer":0,
			"byteLength":36036,
			"byteOffset":36036,
			"target":34962
		},
		{
			"buffer":0,
			"byteLength":24024,
			"byteOffset":72072,
			"target":34962
		},
		{
			"buffer":0,
			"byteLength":48048,
			"byteOffset":96096,
			"target":34962
		},
		{
			"buffer":0,
			"byteLength":9024,
			"byteOffset":144144,
			"target":34963
		}
	],
	"buffers":[
		{
			"byteLength":153168,
			"uri":"tree4-76acef89691901e644bde71e98ddcfed.bin"
		}
	]
}
