{
	"asset":{
		"generator":"Khronos glTF Blender I/O v4.4.56",
		"version":"2.0"
	},
	"scene":0,
	"scenes":[
		{
			"name":"Scene",
			"nodes":[
				0,
				1,
				2,
				3,
				4,
				5,
				6,
				7,
				8,
				9,
				10
			]
		}
	],
	"nodes":[
		{
			"mesh":0,
			"name":"Cylinder",
			"rotation":[
				0.005901402328163385,
				-0.917367160320282,
				0.013610411435365677,
				0.397765576839447
			],
			"translation":[
				2.5568904876708984,
				-0.08902835845947266,
				-1.5315014123916626
			]
		},
		{
			"mesh":1,
			"name":"Cone",
			"rotation":[
				0,
				-0.9174681305885315,
				0,
				0.39780935645103455
			],
			"translation":[
				2.763272285461426,
				-0.5703532695770264,
				-1.394359827041626
			]
		},
		{
			"name":"Wind",
			"rotation":[
				-0.1982668936252594,
				0.16636569797992706,
				-0.7399421334266663,
				0.6208851933479309
			],
			"translation":[
				-2.00954270362854,
				2.3170199394226074,
				4.244671821594238
			]
		},
		{
			"mesh":2,
			"name":"Icosphere.001",
			"rotation":[
				0,
				-0.9174681305885315,
				0,
				0.39780935645103455
			],
			"translation":[
				3.580810546875,
				2.349583387374878,
				-1.760494589805603
			]
		},
		{
			"mesh":3,
			"name":"Icosphere.002",
			"rotation":[
				0,
				-0.9174681305885315,
				0,
				0.39780935645103455
			],
			"translation":[
				2.2775957584381104,
				2.675346851348877,
				-2.06850004196167
			]
		},
		{
			"mesh":4,
			"name":"Icosphere.003",
			"rotation":[
				0,
				-0.9174681305885315,
				0,
				0.39780935645103455
			],
			"translation":[
				1.7821344137191772,
				2.8316140174865723,
				-0.8163601160049438
			]
		},
		{
			"mesh":5,
			"name":"Icosphere.004",
			"rotation":[
				0,
				-0.9174681305885315,
				0,
				0.39780935645103455
			],
			"translation":[
				0.8103816509246826,
				3.592172622680664,
				-1.5570135116577148
			]
		},
		{
			"mesh":6,
			"name":"Cylinder.001",
			"rotation":[
				0.31998810172080994,
				0.684088945388794,
				-0.3843405544757843,
				0.530954122543335
			],
			"translation":[
				1.790532112121582,
				3.7587947845458984,
				-0.6043992042541504
			]
		},
		{
			"mesh":7,
			"name":"Icosphere.005",
			"rotation":[
				0,
				-0.9174681305885315,
				0,
				0.39780935645103455
			],
			"translation":[
				2.1723339557647705,
				4.104981422424316,
				-0.7361747026443481
			]
		},
		{
			"mesh":8,
			"name":"Icosphere.006",
			"rotation":[
				0,
				-0.9174681305885315,
				0,
				0.39780935645103455
			],
			"translation":[
				1.2153648138046265,
				3.549807548522949,
				-0.5882076025009155
			]
		},
		{
			"mesh":9,
			"name":"Cylinder.002",
			"rotation":[
				0.44010961055755615,
				-0.8082915544509888,
				-0.18246635794639587,
				0.3459397554397583
			],
			"translation":[
				2.088916778564453,
				1.4756150245666504,
				-1.3324222564697266
			]
		}
	],
	"materials":[
		{
			"doubleSided":true,
			"name":"Material.002",
			"pbrMetallicRoughness":{
				"baseColorFactor":[
					0.1221381202340126,
					0.04666513949632645,
					0.010960107669234276,
					1
				],
				"metallicFactor":0,
				"roughnessFactor":0.5
			}
		},
		{
			"doubleSided":true,
			"name":"Material.003",
			"pbrMetallicRoughness":{
				"baseColorFactor":[
					0.1221381202340126,
					0.04666513949632645,
					0.010960107669234276,
					1
				],
				"metallicFactor":0,
				"roughnessFactor":0.5
			}
		},
		{
			"doubleSided":true,
			"name":"Material.009",
			"pbrMetallicRoughness":{
				"baseColorFactor":[
					0.03820396214723587,
					0.21586079895496368,
					0.04817189276218414,
					1
				],
				"metallicFactor":0,
				"roughnessFactor":0.5
			}
		},
		{
			"doubleSided":true,
			"name":"Material.008",
			"pbrMetallicRoughness":{
				"baseColorFactor":[
					0.03820396214723587,
					0.21586079895496368,
					0.04817189276218414,
					1
				],
				"metallicFactor":0,
				"roughnessFactor":0.5
			}
		},
		{
			"doubleSided":true,
			"name":"Material.007",
			"pbrMetallicRoughness":{
				"baseColorFactor":[
					0.03820396214723587,
					0.21586079895496368,
					0.04817189276218414,
					1
				],
				"metallicFactor":0,
				"roughnessFactor":0.5
			}
		},
		{
			"doubleSided":true,
			"name":"Material.005",
			"pbrMetallicRoughness":{
				"baseColorFactor":[
					0.03820396214723587,
					0.21586079895496368,
					0.04817189276218414,
					1
				],
				"metallicFactor":0,
				"roughnessFactor":0.5
			}
		},
		{
			"doubleSided":true,
			"name":"Material.006",
			"pbrMetallicRoughness":{
				"baseColorFactor":[
					0.03820396214723587,
					0.21586079895496368,
					0.04817189276218414,
					1
				],
				"metallicFactor":0,
				"roughnessFactor":0.5
			}
		},
		{
			"doubleSided":true,
			"name":"Material.004",
			"pbrMetallicRoughness":{
				"baseColorFactor":[
					0.03820396214723587,
					0.21586079895496368,
					0.04817189276218414,
					1
				],
				"metallicFactor":0,
				"roughnessFactor":0.5
			}
		},
		{
			"doubleSided":true,
			"name":"Material.001",
			"pbrMetallicRoughness":{
				"baseColorFactor":[
					0.1221381202340126,
					0.04666513949632645,
					0.010960107669234276,
					1
				],
				"metallicFactor":0,
				"roughnessFactor":0.5
			}
		}
	],
	"meshes":[
		{
			"name":"Cylinder.001",
			"primitives":[
				{
					"attributes":{
						"POSITION":0,
						"NORMAL":1,
						"TEXCOORD_0":2
					},
					"indices":3,
					"material":0
				}
			]
		},
		{
			"name":"Cone.001",
			"primitives":[
				{
					"attributes":{
						"POSITION":4,
						"NORMAL":5,
						"TEXCOORD_0":6
					},
					"indices":7,
					"material":1
				}
			]
		},
		{
			"name":"Icosphere.002",
			"primitives":[
				{
					"attributes":{
						"POSITION":8,
						"NORMAL":9,
						"TEXCOORD_0":10,
						"TANGENT":11
					},
					"indices":12,
					"material":2
				}
			]
		},
		{
			"name":"Icosphere.003",
			"primitives":[
				{
					"attributes":{
						"POSITION":13,
						"NORMAL":14,
						"TEXCOORD_0":15,
						"TANGENT":16
					},
					"indices":12,
					"material":3
				}
			]
		},
		{
			"name":"Icosphere.004",
			"primitives":[
				{
					"attributes":{
						"POSITION":17,
						"NORMAL":18,
						"TEXCOORD_0":19,
						"TANGENT":20
					},
					"indices":12,
					"material":4
				}
			]
		},
		{
			"name":"Icosphere.005",
			"primitives":[
				{
					"attributes":{
						"POSITION":21,
						"NORMAL":22,
						"TEXCOORD_0":23,
						"TANGENT":24
					},
					"indices":12,
					"material":5
				}
			]
		},
		{
			"name":"Cylinder.002",
			"primitives":[
				{
					"attributes":{
						"POSITION":25,
						"NORMAL":26,
						"TEXCOORD_0":27
					},
					"indices":28
				}
			]
		},
		{
			"name":"Icosphere.006",
			"primitives":[
				{
					"attributes":{
						"POSITION":29,
						"NORMAL":30,
						"TEXCOORD_0":31,
						"TANGENT":32
					},
					"indices":12,
					"material":6
				}
			]
		},
		{
			"name":"Icosphere.007",
			"primitives":[
				{
					"attributes":{
						"POSITION":33,
						"NORMAL":34,
						"TEXCOORD_0":35,
						"TANGENT":36
					},
					"indices":12,
					"material":7
				}
			]
		},
		{
			"name":"Cylinder.003",
			"primitives":[
				{
					"attributes":{
						"POSITION":37,
						"NORMAL":38,
						"TEXCOORD_0":39
					},
					"indices":28,
					"material":8
				}
			]
		}
	],
	"accessors":[
		{
			"bufferView":0,
			"componentType":5126,
			"count":192,
			"max":[
				0.39000099897384644,
				2.5,
				0.39000099897384644
			],
			"min":[
				-0.39000099897384644,
				-2.5,
				-0.39000099897384644
			],
			"type":"VEC3"
		},
		{
			"bufferView":1,
			"componentType":5126,
			"count":192,
			"type":"VEC3"
		},
		{
			"bufferView":2,
			"componentType":5126,
			"count":192,
			"type":"VEC2"
		},
		{
			"bufferView":3,
			"componentType":5123,
			"count":372,
			"type":"SCALAR"
		},
		{
			"bufferView":4,
			"componentType":5126,
			"count":128,
			"max":[
				0.3600006103515625,
				0.5050004720687866,
				0.3600006103515625
			],
			"min":[
				-0.3600006103515625,
				-0.5050004720687866,
				-0.3600006103515625
			],
			"type":"VEC3"
		},
		{
			"bufferView":5,
			"componentType":5126,
			"count":128,
			"type":"VEC3"
		},
		{
			"bufferView":6,
			"componentType":5126,
			"count":128,
			"type":"VEC2"
		},
		{
			"bufferView":7,
			"componentType":5123,
			"count":186,
			"type":"SCALAR"
		},
		{
			"bufferView":8,
			"componentType":5126,
			"count":240,
			"max":[
				0.9510578513145447,
				1,
				0.9999999403953552
			],
			"min":[
				-0.9510578513145447,
				-1,
				-0.9999999403953552
			],
			"type":"VEC3"
		},
		{
			"bufferView":9,
			"componentType":5126,
			"count":240,
			"type":"VEC3"
		},
		{
			"bufferView":10,
			"componentType":5126,
			"count":240,
			"type":"VEC2"
		},
		{
			"bufferView":11,
			"componentType":5126,
			"count":240,
			"type":"VEC4"
		},
		{
			"bufferView":12,
			"componentType":5123,
			"count":240,
			"type":"SCALAR"
		},
		{
			"bufferView":13,
			"componentType":5126,
			"count":240,
			"max":[
				0.9510578513145447,
				1,
				0.9999999403953552
			],
			"min":[
				-0.9510578513145447,
				-1,
				-0.9999999403953552
			],
			"type":"VEC3"
		},
		{
			"bufferView":14,
			"componentType":5126,
			"count":240,
			"type":"VEC3"
		},
		{
			"bufferView":15,
			"componentType":5126,
			"count":240,
			"type":"VEC2"
		},
		{
			"bufferView":16,
			"componentType":5126,
			"count":240,
			"type":"VEC4"
		},
		{
			"bufferView":17,
			"componentType":5126,
			"count":240,
			"max":[
				0.9510578513145447,
				1,
				0.9999999403953552
			],
			"min":[
				-0.9510578513145447,
				-1,
				-0.9999999403953552
			],
			"type":"VEC3"
		},
		{
			"bufferView":18,
			"componentType":5126,
			"count":240,
			"type":"VEC3"
		},
		{
			"bufferView":19,
			"componentType":5126,
			"count":240,
			"type":"VEC2"
		},
		{
			"bufferView":20,
			"componentType":5126,
			"count":240,
			"type":"VEC4"
		},
		{
			"bufferView":21,
			"componentType":5126,
			"count":240,
			"max":[
				0.9510578513145447,
				1,
				0.9999999403953552
			],
			"min":[
				-0.9510578513145447,
				-1,
				-0.9999999403953552
			],
			"type":"VEC3"
		},
		{
			"bufferView":22,
			"componentType":5126,
			"count":240,
			"type":"VEC3"
		},
		{
			"bufferView":23,
			"componentType":5126,
			"count":240,
			"type":"VEC2"
		},
		{
			"bufferView":24,
			"componentType":5126,
			"count":240,
			"type":"VEC4"
		},
		{
			"bufferView":25,
			"componentType":5126,
			"count":84,
			"max":[
				0.10724303126335144,
				0.8500001430511475,
				0.11000097543001175
			],
			"min":[
				-0.10724303126335144,
				-0.8500001430511475,
				-0.11000097543001175
			],
			"type":"VEC3"
		},
		{
			"bufferView":26,
			"componentType":5126,
			"count":84,
			"type":"VEC3"
		},
		{
			"bufferView":27,
			"componentType":5126,
			"count":84,
			"type":"VEC2"
		},
		{
			"bufferView":28,
			"componentType":5123,
			"count":156,
			"type":"SCALAR"
		},
		{
			"bufferView":29,
			"componentType":5126,
			"count":240,
			"max":[
				0.9510578513145447,
				1,
				0.9999999403953552
			],
			"min":[
				-0.9510578513145447,
				-1,
				-0.9999999403953552
			],
			"type":"VEC3"
		},
		{
			"bufferView":30,
			"componentType":5126,
			"count":240,
			"type":"VEC3"
		},
		{
			"bufferView":31,
			"componentType":5126,
			"count":240,
			"type":"VEC2"
		},
		{
			"bufferView":32,
			"componentType":5126,
			"count":240,
			"type":"VEC4"
		},
		{
			"bufferView":33,
			"componentType":5126,
			"count":240,
			"max":[
				0.9510578513145447,
				1,
				0.9999999403953552
			],
			"min":[
				-0.9510578513145447,
				-1,
				-0.9999999403953552
			],
			"type":"VEC3"
		},
		{
			"bufferView":34,
			"componentType":5126,
			"count":240,
			"type":"VEC3"
		},
		{
			"bufferView":35,
			"componentType":5126,
			"count":240,
			"type":"VEC2"
		},
		{
			"bufferView":36,
			"componentType":5126,
			"count":240,
			"type":"VEC4"
		},
		{
			"bufferView":37,
			"componentType":5126,
			"count":84,
			"max":[
				0.10724300146102905,
				0.8500000238418579,
				0.11000095307826996
			],
			"min":[
				-0.10724300146102905,
				-0.8500000238418579,
				-0.11000095307826996
			],
			"type":"VEC3"
		},
		{
			"bufferView":38,
			"componentType":5126,
			"count":84,
			"type":"VEC3"
		},
		{
			"bufferView":39,
			"componentType":5126,
			"count":84,
			"type":"VEC2"
		}
	],
	"bufferViews":[
		{
			"buffer":0,
			"byteLength":2304,
			"byteOffset":0,
			"target":34962
		},
		{
			"buffer":0,
			"byteLength":2304,
			"byteOffset":2304,
			"target":34962
		},
		{
			"buffer":0,
			"byteLength":1536,
			"byteOffset":4608,
			"target":34962
		},
		{
			"buffer":0,
			"byteLength":744,
			"byteOffset":6144,
			"target":34963
		},
		{
			"buffer":0,
			"byteLength":1536,
			"byteOffset":6888,
			"target":34962
		},
		{
			"buffer":0,
			"byteLength":1536,
			"byteOffset":8424,
			"target":34962
		},
		{
			"buffer":0,
			"byteLength":1024,
			"byteOffset":9960,
			"target":34962
		},
		{
			"buffer":0,
			"byteLength":372,
			"byteOffset":10984,
			"target":34963
		},
		{
			"buffer":0,
			"byteLength":2880,
			"byteOffset":11356,
			"target":34962
		},
		{
			"buffer":0,
			"byteLength":2880,
			"byteOffset":14236,
			"target":34962
		},
		{
			"buffer":0,
			"byteLength":1920,
			"byteOffset":17116,
			"target":34962
		},
		{
			"buffer":0,
			"byteLength":3840,
			"byteOffset":19036,
			"target":34962
		},
		{
			"buffer":0,
			"byteLength":480,
			"byteOffset":22876,
			"target":34963
		},
		{
			"buffer":0,
			"byteLength":2880,
			"byteOffset":23356,
			"target":34962
		},
		{
			"buffer":0,
			"byteLength":2880,
			"byteOffset":26236,
			"target":34962
		},
		{
			"buffer":0,
			"byteLength":1920,
			"byteOffset":29116,
			"target":34962
		},
		{
			"buffer":0,
			"byteLength":3840,
			"byteOffset":31036,
			"target":34962
		},
		{
			"buffer":0,
			"byteLength":2880,
			"byteOffset":34876,
			"target":34962
		},
		{
			"buffer":0,
			"byteLength":2880,
			"byteOffset":37756,
			"target":34962
		},
		{
			"buffer":0,
			"byteLength":1920,
			"byteOffset":40636,
			"target":34962
		},
		{
			"buffer":0,
			"byteLength":3840,
			"byteOffset":42556,
			"target":34962
		},
		{
			"buffer":0,
			"byteLength":2880,
			"byteOffset":46396,
			"target":34962
		},
		{
			"buffer":0,
			"byteLength":2880,
			"byteOffset":49276,
			"target":34962
		},
		{
			"buffer":0,
			"byteLength":1920,
			"byteOffset":52156,
			"target":34962
		},
		{
			"buffer":0,
			"byteLength":3840,
			"byteOffset":54076,
			"target":34962
		},
		{
			"buffer":0,
			"byteLength":1008,
			"byteOffset":57916,
			"target":34962
		},
		{
			"buffer":0,
			"byteLength":1008,
			"byteOffset":58924,
			"target":34962
		},
		{
			"buffer":0,
			"byteLength":672,
			"byteOffset":59932,
			"target":34962
		},
		{
			"buffer":0,
			"byteLength":312,
			"byteOffset":60604,
			"target":34963
		},
		{
			"buffer":0,
			"byteLength":2880,
			"byteOffset":60916,
			"target":34962
		},
		{
			"buffer":0,
			"byteLength":2880,
			"byteOffset":63796,
			"target":34962
		},
		{
			"buffer":0,
			"byteLength":1920,
			"byteOffset":66676,
			"target":34962
		},
		{
			"buffer":0,
			"byteLength":3840,
			"byteOffset":68596,
			"target":34962
		},
		{
			"buffer":0,
			"byteLength":2880,
			"byteOffset":72436,
			"target":34962
		},
		{
			"buffer":0,
			"byteLength":2880,
			"byteOffset":75316,
			"target":34962
		},
		{
			"buffer":0,
			"byteLength":1920,
			"byteOffset":78196,
			"target":34962
		},
		{
			"buffer":0,
			"byteLength":3840,
			"byteOffset":80116,
			"target":34962
		},
		{
			"buffer":0,
			"byteLength":1008,
			"byteOffset":83956,
			"target":34962
		},
		{
			"buffer":0,
			"byteLength":1008,
			"byteOffset":84964,
			"target":34962
		},
		{
			"buffer":0,
			"byteLength":672,
			"byteOffset":85972,
			"target":34962
		}
	],
	"buffers":[
		{
			"byteLength":86644,
			"uri":"Untitled-25d3358efb3d35d44789a3a47759732a.bin"
		}
	]
}
